<?xml version="1.0" encoding="UTF-8" standalone="no"?>
<!DOCTYPE svg PUBLIC "-//W3C//DTD SVG 1.1//EN"
 "http://www.w3.org/Graphics/SVG/1.1/DTD/svg11.dtd">
<!-- Generated by graphviz version 14.1.5 (20260411.2331)
 -->
<!-- Title: Failover Orchestrator — Network Topology Pages: 1 -->
<svg width="1473pt" height="1426pt"
 viewBox="0.00 0.00 1473.00 1426.00" xmlns="http://www.w3.org/2000/svg" xmlns:xlink="http://www.w3.org/1999/xlink">
<g id="graph0" class="graph" transform="scale(1 1) rotate(0) translate(144 1282)">
<title>Failover Orchestrator — Network Topology</title>
<text xml:space="preserve" text-anchor="middle" x="592.42" y="-1120.7" font-family="Sans-Serif" font-size="14.00" fill="#2d3436">Failover Orchestrator — Network Topology</text>
<g id="clust1" class="cluster">
<title>cluster_VPC (us&#45;east&#45;1)</title>
<path fill="#e5f5fd" stroke="#aeb6be" d="M20,-658C20,-658 1164.85,-658 1164.85,-658 1170.85,-658 1176.85,-664 1176.85,-670 1176.85,-670 1176.85,-1095 1176.85,-1095 1176.85,-1101 1170.85,-1107 1164.85,-1107 1164.85,-1107 20,-1107 20,-1107 14,-1107 8,-1101 8,-1095 8,-1095 8,-670 8,-670 8,-664 14,-658 20,-658"/>
<text xml:space="preserve" text-anchor="middle" x="58.75" y="-1091.6" font-family="Sans-Serif" font-size="12.00" fill="#2d3436">VPC (us&#45;east&#45;1)</text>
</g>
<g id="clust2" class="cluster">
<title>cluster_Routable subnets</title>
<path fill="#ebf3e7" stroke="#aeb6be" d="M28,-666C28,-666 304.1,-666 304.1,-666 310.1,-666 316.1,-672 316.1,-678 316.1,-678 316.1,-857 316.1,-857 316.1,-863 310.1,-869 304.1,-869 304.1,-869 28,-869 28,-869 22,-869 16,-863 16,-857 16,-857 16,-678 16,-678 16,-672 22,-666 28,-666"/>
<text xml:space="preserve" text-anchor="middle" x="70.88" y="-853.6" font-family="Sans-Serif" font-size="12.00" fill="#2d3436">Routable subnets</text>
</g>
<g id="clust3" class="cluster">
<title>cluster_Private subnets</title>
<path fill="#ebf3e7" stroke="#aeb6be" d="M420.85,-666C420.85,-666 1156.85,-666 1156.85,-666 1162.85,-666 1168.85,-672 1168.85,-678 1168.85,-678 1168.85,-1066 1168.85,-1066 1168.85,-1072 1162.85,-1078 1156.85,-1078 1156.85,-1078 420.85,-1078 420.85,-1078 414.85,-1078 408.85,-1072 408.85,-1066 408.85,-1066 408.85,-678 408.85,-678 408.85,-672 414.85,-666 420.85,-666"/>
<text xml:space="preserve" text-anchor="middle" x="458.1" y="-1062.6" font-family="Sans-Serif" font-size="12.00" fill="#2d3436">Private subnets</text>
</g>
<g id="clust4" class="cluster">
<title>cluster_VPC (us&#45;east&#45;2)</title>
<path fill="#e5f5fd" stroke="#aeb6be" d="M20,-8C20,-8 1164.85,-8 1164.85,-8 1170.85,-8 1176.85,-14 1176.85,-20 1176.85,-20 1176.85,-445 1176.85,-445 1176.85,-451 1170.85,-457 1164.85,-457 1164.85,-457 20,-457 20,-457 14,-457 8,-451 8,-445 8,-445 8,-20 8,-20 8,-14 14,-8 20,-8"/>
<text xml:space="preserve" text-anchor="middle" x="58.75" y="-441.6" font-family="Sans-Serif" font-size="12.00" fill="#2d3436">VPC (us&#45;east&#45;2)</text>
</g>
<g id="clust5" class="cluster">
<title>cluster_Routable subnets</title>
<path fill="#ebf3e7" stroke="#aeb6be" d="M28,-225C28,-225 304.1,-225 304.1,-225 310.1,-225 316.1,-231 316.1,-237 316.1,-237 316.1,-416 316.1,-416 316.1,-422 310.1,-428 304.1,-428 304.1,-428 28,-428 28,-428 22,-428 16,-422 16,-416 16,-416 16,-237 16,-237 16,-231 22,-225 28,-225"/>
<text xml:space="preserve" text-anchor="middle" x="70.88" y="-412.6" font-family="Sans-Serif" font-size="12.00" fill="#2d3436">Routable subnets</text>
</g>
<g id="clust6" class="cluster">
<title>cluster_Private subnets</title>
<path fill="#ebf3e7" stroke="#aeb6be" d="M420.85,-16C420.85,-16 1156.85,-16 1156.85,-16 1162.85,-16 1168.85,-22 1168.85,-28 1168.85,-28 1168.85,-416 1168.85,-416 1168.85,-422 1162.85,-428 1156.85,-428 1156.85,-428 420.85,-428 420.85,-428 414.85,-428 408.85,-422 408.85,-416 408.85,-416 408.85,-28 408.85,-28 408.85,-22 414.85,-16 420.85,-16"/>
<text xml:space="preserve" text-anchor="middle" x="458.1" y="-412.6" font-family="Sans-Serif" font-size="12.00" fill="#2d3436">Private subnets</text>
</g>
<!-- 489da4462108409cb7baeefd8018501b -->
<g id="node1" class="node">
<title>489da4462108409cb7baeefd8018501b</title>
<image xlink:href="/Users/enriqueramirez/Documents/08-Dev/fo-orchestrator-v2/.venv/lib/python3.14/site-packages/resources/aws/network/route-53.png" width="100.8px" height="100.8px" preserveAspectRatio="xMinYMin meet" x="24" y="-598.4"/>
<text xml:space="preserve" text-anchor="middle" x="74.4" y="-479.85" font-family="Sans-Serif" font-size="13.00" fill="#2d3436">Route 53</text>
<text xml:space="preserve" text-anchor="middle" x="74.4" y="-466.35" font-family="Sans-Serif" font-size="13.00" fill="#2d3436">failover record</text>
</g>
<!-- b214b871d34a4cd4894c4457b9041f90 -->
<g id="node3" class="node">
<title>b214b871d34a4cd4894c4457b9041f90</title>
<image xlink:href="/Users/enriqueramirez/Documents/08-Dev/fo-orchestrator-v2/.venv/lib/python3.14/site-packages/resources/aws/network/elb-network-load-balancer.png" width="100.8px" height="100.8px" preserveAspectRatio="xMinYMin meet" x="207.3" y="-807.4"/>
<text xml:space="preserve" text-anchor="middle" x="257.7" y="-688.85" font-family="Sans-Serif" font-size="13.00" fill="#2d3436">Outer NLB</text>
<text xml:space="preserve" text-anchor="middle" x="257.7" y="-675.35" font-family="Sans-Serif" font-size="13.00" fill="#2d3436">(TLS, us&#45;east&#45;1)</text>
</g>
<!-- 489da4462108409cb7baeefd8018501b&#45;&gt;b214b871d34a4cd4894c4457b9041f90 -->
<g id="edge1" class="edge">
<title>489da4462108409cb7baeefd8018501b&#45;&gt;b214b871d34a4cd4894c4457b9041f90</title>
<path fill="none" stroke="#7b8894" d="M124.72,-564.56C184.1,-564.56 274.85,-564.56 274.85,-564.56 274.85,-564.56 274.85,-662.76 274.85,-662.76"/>
<polygon fill="#7b8894" stroke="#7b8894" points="271.35,-662.76 274.85,-672.76 278.35,-662.76 271.35,-662.76"/>
<text xml:space="preserve" text-anchor="middle" x="166.05" y="-643.15" font-family="Sans-Serif" font-size="13.00" fill="#2d3436">DNS</text>
</g>
<!-- 54eb260f588144189fddb3306ae7aaff -->
<g id="node11" class="node">
<title>54eb260f588144189fddb3306ae7aaff</title>
<image xlink:href="/Users/enriqueramirez/Documents/08-Dev/fo-orchestrator-v2/.venv/lib/python3.14/site-packages/resources/aws/network/elb-network-load-balancer.png" width="100.8px" height="100.8px" preserveAspectRatio="xMinYMin meet" x="207.3" y="-366.4"/>
<text xml:space="preserve" text-anchor="middle" x="257.7" y="-247.85" font-family="Sans-Serif" font-size="13.00" fill="#2d3436">Outer NLB</text>
<text xml:space="preserve" text-anchor="middle" x="257.7" y="-234.35" font-family="Sans-Serif" font-size="13.00" fill="#2d3436">(TLS, us&#45;east&#45;2)</text>
</g>
<!-- 489da4462108409cb7baeefd8018501b&#45;&gt;54eb260f588144189fddb3306ae7aaff -->
<g id="edge10" class="edge">
<title>489da4462108409cb7baeefd8018501b&#45;&gt;54eb260f588144189fddb3306ae7aaff</title>
<path fill="none" stroke="#7b8894" d="M124.79,-498.32C173.78,-498.32 240.85,-498.32 240.85,-498.32 240.85,-498.32 240.85,-410.14 240.85,-410.14"/>
<polygon fill="#7b8894" stroke="#7b8894" points="244.35,-410.14 240.85,-400.14 237.35,-410.14 244.35,-410.14"/>
<text xml:space="preserve" text-anchor="middle" x="166.05" y="-426.15" font-family="Sans-Serif" font-size="13.00" fill="#2d3436">DNS</text>
</g>
<!-- 9c8b85d34d764b3d9f2693ffad1c9bf0 -->
<g id="node2" class="node">
<title>9c8b85d34d764b3d9f2693ffad1c9bf0</title>
<image xlink:href="/Users/enriqueramirez/Documents/08-Dev/fo-orchestrator-v2/.venv/lib/python3.14/site-packages/resources/onprem/queue/kafka.png" width="100.8px" height="100.8px" preserveAspectRatio="xMinYMin meet" x="1060.05" y="-598.4"/>
<text xml:space="preserve" text-anchor="middle" x="1110.45" y="-479.85" font-family="Sans-Serif" font-size="13.00" fill="#2d3436">On&#45;prem Kafka</text>
<text xml:space="preserve" text-anchor="middle" x="1110.45" y="-466.35" font-family="Sans-Serif" font-size="13.00" fill="#2d3436">(consumer&#45;gated)</text>
</g>
<!-- 7f835480e24447e8a10657c0bac8beac -->
<g id="node4" class="node">
<title>7f835480e24447e8a10657c0bac8beac</title>
<image xlink:href="/Users/enriqueramirez/Documents/08-Dev/fo-orchestrator-v2/.venv/lib/python3.14/site-packages/resources/aws/network/api-gateway.png" width="100.8px" height="100.8px" preserveAspectRatio="xMinYMin meet" x="416.85" y="-807.4"/>
<text xml:space="preserve" text-anchor="middle" x="467.25" y="-688.85" font-family="Sans-Serif" font-size="13.00" fill="#2d3436">API GW</text>
<text xml:space="preserve" text-anchor="middle" x="467.25" y="-675.35" font-family="Sans-Serif" font-size="13.00" fill="#2d3436">(optional)</text>
</g>
<!-- b214b871d34a4cd4894c4457b9041f90&#45;&gt;7f835480e24447e8a10657c0bac8beac -->
<g id="edge2" class="edge">
<title>b214b871d34a4cd4894c4457b9041f90&#45;&gt;7f835480e24447e8a10657c0bac8beac</title>
<path fill="none" stroke="#7b8894" d="M307.89,-757C307.89,-757 405.59,-757 405.59,-757"/>
<polygon fill="#7b8894" stroke="#7b8894" points="405.59,-760.5 415.59,-757 405.59,-753.5 405.59,-760.5"/>
<text xml:space="preserve" text-anchor="middle" x="362.48" y="-758.15" font-family="Sans-Serif" font-size="13.00" fill="#2d3436">TLS term</text>
</g>
<!-- 58cf3af8896b49f6b40aae1724984479 -->
<g id="node5" class="node">
<title>58cf3af8896b49f6b40aae1724984479</title>
<image xlink:href="/Users/enriqueramirez/Documents/08-Dev/fo-orchestrator-v2/.venv/lib/python3.14/site-packages/resources/aws/network/elb-network-load-balancer.png" width="100.8px" height="100.8px" preserveAspectRatio="xMinYMin meet" x="572.65" y="-807.4"/>
<text xml:space="preserve" text-anchor="middle" x="623.05" y="-689.75" font-family="Sans-Serif" font-size="13.00" fill="#2d3436">Inner NLB</text>
</g>
<!-- 7f835480e24447e8a10657c0bac8beac&#45;&gt;58cf3af8896b49f6b40aae1724984479 -->
<g id="edge3" class="edge">
<title>7f835480e24447e8a10657c0bac8beac&#45;&gt;58cf3af8896b49f6b40aae1724984479</title>
<path fill="none" stroke="#7b8894" d="M517.4,-757C517.4,-757 561.21,-757 561.21,-757"/>
<polygon fill="#7b8894" stroke="#7b8894" points="561.21,-760.5 571.21,-757 561.21,-753.5 561.21,-760.5"/>
</g>
<!-- e90ee2eef13d4c2a90a9d751810807e5 -->
<g id="node6" class="node">
<title>e90ee2eef13d4c2a90a9d751810807e5</title>
<image xlink:href="/Users/enriqueramirez/Documents/08-Dev/fo-orchestrator-v2/.venv/lib/python3.14/site-packages/resources/aws/network/elastic-load-balancing.png" width="100.8px" height="100.8px" preserveAspectRatio="xMinYMin meet" x="728.45" y="-807.4"/>
<text xml:space="preserve" text-anchor="middle" x="778.85" y="-689.75" font-family="Sans-Serif" font-size="13.00" fill="#2d3436">ALB</text>
</g>
<!-- 58cf3af8896b49f6b40aae1724984479&#45;&gt;e90ee2eef13d4c2a90a9d751810807e5 -->
<g id="edge4" class="edge">
<title>58cf3af8896b49f6b40aae1724984479&#45;&gt;e90ee2eef13d4c2a90a9d751810807e5</title>
<path fill="none" stroke="#7b8894" d="M673.2,-757C673.2,-757 717.01,-757 717.01,-757"/>
<polygon fill="#7b8894" stroke="#7b8894" points="717.01,-760.5 727.01,-757 717.01,-753.5 717.01,-760.5"/>
</g>
<!-- 8e574ef75e0e424cbafb1f9a7f2c9599 -->
<g id="node7" class="node">
<title>8e574ef75e0e424cbafb1f9a7f2c9599</title>
<image xlink:href="/Users/enriqueramirez/Documents/08-Dev/fo-orchestrator-v2/.venv/lib/python3.14/site-packages/resources/aws/compute/fargate.png" width="100.8px" height="100.8px" preserveAspectRatio="xMinYMin meet" x="884.25" y="-807.4"/>
<text xml:space="preserve" text-anchor="middle" x="934.65" y="-688.85" font-family="Sans-Serif" font-size="13.00" fill="#2d3436">ECS Fargate</text>
<text xml:space="preserve" text-anchor="middle" x="934.65" y="-675.35" font-family="Sans-Serif" font-size="13.00" fill="#2d3436">(warm standby ≥1)</text>
</g>
<!-- e90ee2eef13d4c2a90a9d751810807e5&#45;&gt;8e574ef75e0e424cbafb1f9a7f2c9599 -->
<g id="edge5" class="edge">
<title>e90ee2eef13d4c2a90a9d751810807e5&#45;&gt;8e574ef75e0e424cbafb1f9a7f2c9599</title>
<path fill="none" stroke="#7b8894" d="M829,-757C829,-757 872.81,-757 872.81,-757"/>
<polygon fill="#7b8894" stroke="#7b8894" points="872.81,-760.5 882.81,-757 872.81,-753.5 872.81,-760.5"/>
</g>
<!-- 8e574ef75e0e424cbafb1f9a7f2c9599&#45;&gt;9c8b85d34d764b3d9f2693ffad1c9bf0 -->
<g id="edge7" class="edge">
<title>8e574ef75e0e424cbafb1f9a7f2c9599&#45;&gt;9c8b85d34d764b3d9f2693ffad1c9bf0</title>
<path fill="none" stroke="#7b8894" d="M951.85,-674.54C951.85,-635.66 951.85,-597.68 951.85,-597.68 951.85,-597.68 1048.75,-597.68 1048.75,-597.68"/>
<polygon fill="#7b8894" stroke="#7b8894" points="1048.75,-601.18 1058.75,-597.68 1048.75,-594.18 1048.75,-601.18"/>
<text xml:space="preserve" text-anchor="middle" x="1022.55" y="-643.15" font-family="Sans-Serif" font-size="13.00" fill="#2d3436">poll</text>
</g>
<!-- 78cb1ce96f964a69a259946e6fa1d7c7 -->
<g id="node8" class="node">
<title>78cb1ce96f964a69a259946e6fa1d7c7</title>
<image xlink:href="/Users/enriqueramirez/Documents/08-Dev/fo-orchestrator-v2/.venv/lib/python3.14/site-packages/resources/aws/database/rds.png" width="100.8px" height="100.8px" preserveAspectRatio="xMinYMin meet" x="1060.05" y="-807.4"/>
<text xml:space="preserve" text-anchor="middle" x="1110.45" y="-688.85" font-family="Sans-Serif" font-size="13.00" fill="#2d3436">Aurora</text>
<text xml:space="preserve" text-anchor="middle" x="1110.45" y="-675.35" font-family="Sans-Serif" font-size="13.00" fill="#2d3436">(Global writer/reader)</text>
</g>
<!-- 8e574ef75e0e424cbafb1f9a7f2c9599&#45;&gt;78cb1ce96f964a69a259946e6fa1d7c7 -->
<g id="edge6" class="edge">
<title>8e574ef75e0e424cbafb1f9a7f2c9599&#45;&gt;78cb1ce96f964a69a259946e6fa1d7c7</title>
<path fill="none" stroke="#7b8894" d="M985.03,-757C985.03,-757 1048.55,-757 1048.55,-757"/>
<polygon fill="#7b8894" stroke="#7b8894" points="1048.55,-760.5 1058.55,-757 1048.55,-753.5 1048.55,-760.5"/>
</g>
<!-- b23c9944aeb04d4593f20d2d5f6f9242 -->
<g id="node9" class="node">
<title>b23c9944aeb04d4593f20d2d5f6f9242</title>
<image xlink:href="/Users/enriqueramirez/Documents/08-Dev/fo-orchestrator-v2/.venv/lib/python3.14/site-packages/resources/aws/network/endpoint.png" width="100.8px" height="100.8px" preserveAspectRatio="xMinYMin meet" x="1060.05" y="-1016.4"/>
<text xml:space="preserve" text-anchor="middle" x="1110.45" y="-897.85" font-family="Sans-Serif" font-size="13.00" fill="#2d3436">VPC Endpoints</text>
<text xml:space="preserve" text-anchor="middle" x="1110.45" y="-884.35" font-family="Sans-Serif" font-size="13.00" fill="#2d3436">(SSM/SNS/RDS/CW/...)</text>
</g>
<!-- 8e574ef75e0e424cbafb1f9a7f2c9599&#45;&gt;b23c9944aeb04d4593f20d2d5f6f9242 -->
<g id="edge8" class="edge">
<title>8e574ef75e0e424cbafb1f9a7f2c9599&#45;&gt;b23c9944aeb04d4593f20d2d5f6f9242</title>
<path fill="none" stroke="#7b8894" d="M934.85,-839.6C934.85,-898.02 934.85,-966 934.85,-966 934.85,-966 1048.62,-966 1048.62,-966"/>
<polygon fill="#7b8894" stroke="#7b8894" points="1048.62,-969.5 1058.62,-966 1048.62,-962.5 1048.62,-969.5"/>
</g>
<!-- e56754612d414325b5c51bc7d77e7110 -->
<g id="node10" class="node">
<title>e56754612d414325b5c51bc7d77e7110</title>
<image xlink:href="/Users/enriqueramirez/Documents/08-Dev/fo-orchestrator-v2/.venv/lib/python3.14/site-packages/resources/aws/security/certificate-manager.png" width="100.8px" height="100.8px" preserveAspectRatio="xMinYMin meet" x="24" y="-807.4"/>
<text xml:space="preserve" text-anchor="middle" x="74.4" y="-688.85" font-family="Sans-Serif" font-size="13.00" fill="#2d3436">ACM</text>
<text xml:space="preserve" text-anchor="middle" x="74.4" y="-675.35" font-family="Sans-Serif" font-size="13.00" fill="#2d3436">(self&#45;signed POC)</text>
</g>
<!-- e56754612d414325b5c51bc7d77e7110&#45;&gt;b214b871d34a4cd4894c4457b9041f90 -->
<g id="edge9" class="edge">
<title>e56754612d414325b5c51bc7d77e7110&#45;&gt;b214b871d34a4cd4894c4457b9041f90</title>
<path fill="none" stroke="#7b8894" d="M124.49,-757C124.49,-757 195.84,-757 195.84,-757"/>
<polygon fill="#7b8894" stroke="#7b8894" points="195.84,-760.5 205.84,-757 195.84,-753.5 195.84,-760.5"/>
</g>
<!-- 90dc54274dd5426ebcf79110b10be233 -->
<g id="node12" class="node">
<title>90dc54274dd5426ebcf79110b10be233</title>
<image xlink:href="/Users/enriqueramirez/Documents/08-Dev/fo-orchestrator-v2/.venv/lib/python3.14/site-packages/resources/aws/network/api-gateway.png" width="100.8px" height="100.8px" preserveAspectRatio="xMinYMin meet" x="416.85" y="-366.4"/>
<text xml:space="preserve" text-anchor="middle" x="467.25" y="-247.85" font-family="Sans-Serif" font-size="13.00" fill="#2d3436">API GW</text>
<text xml:space="preserve" text-anchor="middle" x="467.25" y="-234.35" font-family="Sans-Serif" font-size="13.00" fill="#2d3436">(optional)</text>
</g>
<!-- 54eb260f588144189fddb3306ae7aaff&#45;&gt;90dc54274dd5426ebcf79110b10be233 -->
<g id="edge11" class="edge">
<title>54eb260f588144189fddb3306ae7aaff&#45;&gt;90dc54274dd5426ebcf79110b10be233</title>
<path fill="none" stroke="#7b8894" d="M307.89,-316C307.89,-316 405.59,-316 405.59,-316"/>
<polygon fill="#7b8894" stroke="#7b8894" points="405.59,-319.5 415.59,-316 405.59,-312.5 405.59,-319.5"/>
<text xml:space="preserve" text-anchor="middle" x="362.48" y="-317.15" font-family="Sans-Serif" font-size="13.00" fill="#2d3436">TLS term</text>
</g>
<!-- 2ef499fd38b7439aaf3b79c77635be2f -->
<g id="node13" class="node">
<title>2ef499fd38b7439aaf3b79c77635be2f</title>
<image xlink:href="/Users/enriqueramirez/Documents/08-Dev/fo-orchestrator-v2/.venv/lib/python3.14/site-packages/resources/aws/network/elb-network-load-balancer.png" width="100.8px" height="100.8px" preserveAspectRatio="xMinYMin meet" x="572.65" y="-366.4"/>
<text xml:space="preserve" text-anchor="middle" x="623.05" y="-248.75" font-family="Sans-Serif" font-size="13.00" fill="#2d3436">Inner NLB</text>
</g>
<!-- 90dc54274dd5426ebcf79110b10be233&#45;&gt;2ef499fd38b7439aaf3b79c77635be2f -->
<g id="edge12" class="edge">
<title>90dc54274dd5426ebcf79110b10be233&#45;&gt;2ef499fd38b7439aaf3b79c77635be2f</title>
<path fill="none" stroke="#7b8894" d="M517.4,-316C517.4,-316 561.21,-316 561.21,-316"/>
<polygon fill="#7b8894" stroke="#7b8894" points="561.21,-319.5 571.21,-316 561.21,-312.5 561.21,-319.5"/>
</g>
<!-- 7fd2a5e1d3754557a92f742fe042b871 -->
<g id="node14" class="node">
<title>7fd2a5e1d3754557a92f742fe042b871</title>
<image xlink:href="/Users/enriqueramirez/Documents/08-Dev/fo-orchestrator-v2/.venv/lib/python3.14/site-packages/resources/aws/network/elastic-load-balancing.png" width="100.8px" height="100.8px" preserveAspectRatio="xMinYMin meet" x="728.45" y="-366.4"/>
<text xml:space="preserve" text-anchor="middle" x="778.85" y="-248.75" font-family="Sans-Serif" font-size="13.00" fill="#2d3436">ALB</text>
</g>
<!-- 2ef499fd38b7439aaf3b79c77635be2f&#45;&gt;7fd2a5e1d3754557a92f742fe042b871 -->
<g id="edge13" class="edge">
<title>2ef499fd38b7439aaf3b79c77635be2f&#45;&gt;7fd2a5e1d3754557a92f742fe042b871</title>
<path fill="none" stroke="#7b8894" d="M673.2,-316C673.2,-316 717.01,-316 717.01,-316"/>
<polygon fill="#7b8894" stroke="#7b8894" points="717.01,-319.5 727.01,-316 717.01,-312.5 717.01,-319.5"/>
</g>
<!-- 18085af8df7e45d5bd6a2c65f4ca1efa -->
<g id="node15" class="node">
<title>18085af8df7e45d5bd6a2c65f4ca1efa</title>
<image xlink:href="/Users/enriqueramirez/Documents/08-Dev/fo-orchestrator-v2/.venv/lib/python3.14/site-packages/resources/aws/compute/fargate.png" width="100.8px" height="100.8px" preserveAspectRatio="xMinYMin meet" x="884.25" y="-366.4"/>
<text xml:space="preserve" text-anchor="middle" x="934.65" y="-247.85" font-family="Sans-Serif" font-size="13.00" fill="#2d3436">ECS Fargate</text>
<text xml:space="preserve" text-anchor="middle" x="934.65" y="-234.35" font-family="Sans-Serif" font-size="13.00" fill="#2d3436">(warm standby ≥1)</text>
</g>
<!-- 7fd2a5e1d3754557a92f742fe042b871&#45;&gt;18085af8df7e45d5bd6a2c65f4ca1efa -->
<g id="edge14" class="edge">
<title>7fd2a5e1d3754557a92f742fe042b871&#45;&gt;18085af8df7e45d5bd6a2c65f4ca1efa</title>
<path fill="none" stroke="#7b8894" d="M829,-316C829,-316 872.81,-316 872.81,-316"/>
<polygon fill="#7b8894" stroke="#7b8894" points="872.81,-319.5 882.81,-316 872.81,-312.5 872.81,-319.5"/>
</g>
<!-- 18085af8df7e45d5bd6a2c65f4ca1efa&#45;&gt;9c8b85d34d764b3d9f2693ffad1c9bf0 -->
<g id="edge16" class="edge">
<title>18085af8df7e45d5bd6a2c65f4ca1efa&#45;&gt;9c8b85d34d764b3d9f2693ffad1c9bf0</title>
<path fill="none" stroke="#7b8894" d="M917.85,-398.68C917.85,-459.43 917.85,-531.44 917.85,-531.44 917.85,-531.44 1048.58,-531.44 1048.58,-531.44"/>
<polygon fill="#7b8894" stroke="#7b8894" points="1048.58,-534.94 1058.58,-531.44 1048.58,-527.94 1048.58,-534.94"/>
<text xml:space="preserve" text-anchor="middle" x="1022.55" y="-426.15" font-family="Sans-Serif" font-size="13.00" fill="#2d3436">poll</text>
</g>
<!-- 2c8fa38fb3e84913b48f0cad3e89c562 -->
<g id="node16" class="node">
<title>2c8fa38fb3e84913b48f0cad3e89c562</title>
<image xlink:href="/Users/enriqueramirez/Documents/08-Dev/fo-orchestrator-v2/.venv/lib/python3.14/site-packages/resources/aws/database/rds.png" width="100.8px" height="100.8px" preserveAspectRatio="xMinYMin meet" x="1060.05" y="-157.4"/>
<text xml:space="preserve" text-anchor="middle" x="1110.45" y="-38.85" font-family="Sans-Serif" font-size="13.00" fill="#2d3436">Aurora</text>
<text xml:space="preserve" text-anchor="middle" x="1110.45" y="-25.35" font-family="Sans-Serif" font-size="13.00" fill="#2d3436">(Global writer/reader)</text>
</g>
<!-- 18085af8df7e45d5bd6a2c65f4ca1efa&#45;&gt;2c8fa38fb3e84913b48f0cad3e89c562 -->
<g id="edge15" class="edge">
<title>18085af8df7e45d5bd6a2c65f4ca1efa&#45;&gt;2c8fa38fb3e84913b48f0cad3e89c562</title>
<path fill="none" stroke="#7b8894" d="M934.85,-233.4C934.85,-174.98 934.85,-107 934.85,-107 934.85,-107 1048.62,-107 1048.62,-107"/>
<polygon fill="#7b8894" stroke="#7b8894" points="1048.62,-110.5 1058.62,-107 1048.62,-103.5 1048.62,-110.5"/>
</g>
<!-- b134252371fa4d5cb44755edf01259b5 -->
<g id="node17" class="node">
<title>b134252371fa4d5cb44755edf01259b5</title>
<image xlink:href="/Users/enriqueramirez/Documents/08-Dev/fo-orchestrator-v2/.venv/lib/python3.14/site-packages/resources/aws/network/endpoint.png" width="100.8px" height="100.8px" preserveAspectRatio="xMinYMin meet" x="1060.05" y="-366.4"/>
<text xml:space="preserve" text-anchor="middle" x="1110.45" y="-247.85" font-family="Sans-Serif" font-size="13.00" fill="#2d3436">VPC Endpoints</text>
<text xml:space="preserve" text-anchor="middle" x="1110.45" y="-234.35" font-family="Sans-Serif" font-size="13.00" fill="#2d3436">(SSM/SNS/RDS/CW/...)</text>
</g>
<!-- 18085af8df7e45d5bd6a2c65f4ca1efa&#45;&gt;b134252371fa4d5cb44755edf01259b5 -->
<g id="edge17" class="edge">
<title>18085af8df7e45d5bd6a2c65f4ca1efa&#45;&gt;b134252371fa4d5cb44755edf01259b5</title>
<path fill="none" stroke="#7b8894" d="M985.03,-316C985.03,-316 1048.55,-316 1048.55,-316"/>
<polygon fill="#7b8894" stroke="#7b8894" points="1048.55,-319.5 1058.55,-316 1048.55,-312.5 1048.55,-319.5"/>
</g>
<!-- 4380a02c9ad948c8b14a3e2020dd0f24 -->
<g id="node18" class="node">
<title>4380a02c9ad948c8b14a3e2020dd0f24</title>
<image xlink:href="/Users/enriqueramirez/Documents/08-Dev/fo-orchestrator-v2/.venv/lib/python3.14/site-packages/resources/aws/security/certificate-manager.png" width="100.8px" height="100.8px" preserveAspectRatio="xMinYMin meet" x="24" y="-366.4"/>
<text xml:space="preserve" text-anchor="middle" x="74.4" y="-247.85" font-family="Sans-Serif" font-size="13.00" fill="#2d3436">ACM</text>
<text xml:space="preserve" text-anchor="middle" x="74.4" y="-234.35" font-family="Sans-Serif" font-size="13.00" fill="#2d3436">(self&#45;signed POC)</text>
</g>
<!-- 4380a02c9ad948c8b14a3e2020dd0f24&#45;&gt;54eb260f588144189fddb3306ae7aaff -->
<g id="edge18" class="edge">
<title>4380a02c9ad948c8b14a3e2020dd0f24&#45;&gt;54eb260f588144189fddb3306ae7aaff</title>
<path fill="none" stroke="#7b8894" d="M124.49,-316C124.49,-316 195.84,-316 195.84,-316"/>
<polygon fill="#7b8894" stroke="#7b8894" points="195.84,-319.5 205.84,-316 195.84,-312.5 195.84,-319.5"/>
</g>
</g>
</svg>
