<?xml version="1.0" encoding="UTF-8" standalone="no"?>
<!DOCTYPE svg PUBLIC "-//W3C//DTD SVG 1.1//EN"
 "http://www.w3.org/Graphics/SVG/1.1/DTD/svg11.dtd">
<!-- Generated by graphviz version 14.1.5 (20260411.2331)
 -->
<!-- Title: VPC + Endpoints Pages: 1 -->
<svg width="816pt" height="2188pt"
 viewBox="0.00 0.00 816.00 2188.00" xmlns="http://www.w3.org/2000/svg" xmlns:xlink="http://www.w3.org/1999/xlink">
<g id="graph0" class="graph" transform="scale(1 1) rotate(0) translate(144 2044)">
<title>VPC + Endpoints</title>
<text xml:space="preserve" text-anchor="middle" x="264.05" y="-5.7" font-family="Sans-Serif" font-size="14.00" fill="#2d3436">VPC + Endpoints</text>
<g id="clust1" class="cluster">
<title>cluster_VPC us&#45;east&#45;1 (10.10.0.0/16)</title>
<path fill="#e5f5fd" stroke="#aeb6be" d="M20,-31C20,-31 508.1,-31 508.1,-31 514.1,-31 520.1,-37 520.1,-43 520.1,-43 520.1,-1880 520.1,-1880 520.1,-1886 514.1,-1892 508.1,-1892 508.1,-1892 20,-1892 20,-1892 14,-1892 8,-1886 8,-1880 8,-1880 8,-43 8,-43 8,-37 14,-31 20,-31"/>
<text xml:space="preserve" text-anchor="middle" x="93.25" y="-1876.6" font-family="Sans-Serif" font-size="12.00" fill="#2d3436">VPC us&#45;east&#45;1 (10.10.0.0/16)</text>
</g>
<g id="clust2" class="cluster">
<title>cluster_Routable subnets (a/b/c)</title>
<path fill="#ebf3e7" stroke="#aeb6be" d="M242.78,-1690C242.78,-1690 500.1,-1690 500.1,-1690 506.1,-1690 512.1,-1696 512.1,-1702 512.1,-1702 512.1,-1851 512.1,-1851 512.1,-1857 506.1,-1863 500.1,-1863 500.1,-1863 242.78,-1863 242.78,-1863 236.78,-1863 230.78,-1857 230.78,-1851 230.78,-1851 230.78,-1702 230.78,-1702 230.78,-1696 236.78,-1690 242.78,-1690"/>
<text xml:space="preserve" text-anchor="middle" x="303.65" y="-1847.6" font-family="Sans-Serif" font-size="12.00" fill="#2d3436">Routable subnets (a/b/c)</text>
</g>
<g id="clust3" class="cluster">
<title>cluster_Private subnets (a/b/c)</title>
<path fill="#ebf3e7" stroke="#aeb6be" d="M28,-39C28,-39 344.3,-39 344.3,-39 350.3,-39 356.3,-45 356.3,-51 356.3,-51 356.3,-1670 356.3,-1670 356.3,-1676 350.3,-1682 344.3,-1682 344.3,-1682 28,-1682 28,-1682 22,-1682 16,-1676 16,-1670 16,-1670 16,-51 16,-51 16,-45 22,-39 28,-39"/>
<text xml:space="preserve" text-anchor="middle" x="83.25" y="-1666.6" font-family="Sans-Serif" font-size="12.00" fill="#2d3436">Private subnets (a/b/c)</text>
</g>
<g id="clust4" class="cluster">
<title>cluster_Interface endpoints</title>
<path fill="#ece8f6" stroke="#aeb6be" d="M243.05,-219C243.05,-219 336.3,-219 336.3,-219 342.3,-219 348.3,-225 348.3,-231 348.3,-231 348.3,-1460 348.3,-1460 348.3,-1466 342.3,-1472 336.3,-1472 336.3,-1472 243.05,-1472 243.05,-1472 237.05,-1472 231.05,-1466 231.05,-1460 231.05,-1460 231.05,-231 231.05,-231 231.05,-225 237.05,-219 243.05,-219"/>
<text xml:space="preserve" text-anchor="middle" x="289.68" y="-1456.6" font-family="Sans-Serif" font-size="12.00" fill="#2d3436">Interface endpoints</text>
</g>
<g id="clust5" class="cluster">
<title>cluster_Gateway endpoint</title>
<path fill="#ece8f6" stroke="#aeb6be" d="M242.78,-1480C242.78,-1480 335.58,-1480 335.58,-1480 341.58,-1480 347.58,-1486 347.58,-1492 347.58,-1492 347.58,-1641 347.58,-1641 347.58,-1647 341.58,-1653 335.58,-1653 335.58,-1653 242.78,-1653 242.78,-1653 236.78,-1653 230.78,-1647 230.78,-1641 230.78,-1641 230.78,-1492 230.78,-1492 230.78,-1486 236.78,-1480 242.78,-1480"/>
<text xml:space="preserve" text-anchor="middle" x="287.15" y="-1637.6" font-family="Sans-Serif" font-size="12.00" fill="#2d3436">Gateway endpoint</text>
</g>
<!-- b5e1d2c9295b40b2879d293c10799fca -->
<g id="node1" class="node">
<title>b5e1d2c9295b40b2879d293c10799fca</title>
<image xlink:href="/Users/enriqueramirez/Documents/08-Dev/fo-orchestrator-v2/.venv/lib/python3.14/site-packages/resources/aws/network/internet-gateway.png" width="100.8px" height="100.8px" preserveAspectRatio="xMinYMin meet" x="24" y="-1816.4"/>
<text xml:space="preserve" text-anchor="middle" x="74.4" y="-1698.75" font-family="Sans-Serif" font-size="13.00" fill="#2d3436">IGW</text>
</g>
<!-- 124d9ab3ca3e43a39764db2d198cd2d1 -->
<g id="node2" class="node">
<title>124d9ab3ca3e43a39764db2d198cd2d1</title>
<image xlink:href="/Users/enriqueramirez/Documents/08-Dev/fo-orchestrator-v2/.venv/lib/python3.14/site-packages/resources/aws/network/route-table.png" width="100.8px" height="100.8px" preserveAspectRatio="xMinYMin meet" x="238.775" y="-1816.4"/>
<text xml:space="preserve" text-anchor="middle" x="289.18" y="-1698.75" font-family="Sans-Serif" font-size="13.00" fill="#2d3436">RT routable</text>
</g>
<!-- b5e1d2c9295b40b2879d293c10799fca&#45;&gt;124d9ab3ca3e43a39764db2d198cd2d1 -->
<g id="edge1" class="edge">
<title>b5e1d2c9295b40b2879d293c10799fca&#45;&gt;124d9ab3ca3e43a39764db2d198cd2d1</title>
<path fill="none" stroke="#7b8894" d="M124.76,-1766C124.76,-1766 227.62,-1766 227.62,-1766"/>
<polygon fill="#7b8894" stroke="#7b8894" points="227.62,-1769.5 237.62,-1766 227.62,-1762.5 227.62,-1769.5"/>
</g>
<!-- 863727cdcce244af9dc6d936c8d781a9 -->
<g id="node3" class="node">
<title>863727cdcce244af9dc6d936c8d781a9</title>
<image xlink:href="/Users/enriqueramirez/Documents/08-Dev/fo-orchestrator-v2/.venv/lib/python3.14/site-packages/resources/aws/network/public-subnet.png" width="100.8px" height="100.8px" preserveAspectRatio="xMinYMin meet" x="403.3" y="-1816.4"/>
<text xml:space="preserve" text-anchor="middle" x="453.7" y="-1698.75" font-family="Sans-Serif" font-size="13.00" fill="#2d3436">/24 each</text>
</g>
<!-- 124d9ab3ca3e43a39764db2d198cd2d1&#45;&gt;863727cdcce244af9dc6d936c8d781a9 -->
<g id="edge2" class="edge">
<title>124d9ab3ca3e43a39764db2d198cd2d1&#45;&gt;863727cdcce244af9dc6d936c8d781a9</title>
<path fill="none" stroke="#7b8894" d="M339.43,-1766C339.43,-1766 391.95,-1766 391.95,-1766"/>
<polygon fill="#7b8894" stroke="#7b8894" points="391.95,-1769.5 401.95,-1766 391.95,-1762.5 391.95,-1769.5"/>
</g>
<!-- 4eb135a024f549e891acf87131359ab6 -->
<g id="node4" class="node">
<title>4eb135a024f549e891acf87131359ab6</title>
<image xlink:href="/Users/enriqueramirez/Documents/08-Dev/fo-orchestrator-v2/.venv/lib/python3.14/site-packages/resources/aws/network/route-table.png" width="100.8px" height="100.8px" preserveAspectRatio="xMinYMin meet" x="24" y="-165.4"/>
<text xml:space="preserve" text-anchor="middle" x="74.4" y="-47.75" font-family="Sans-Serif" font-size="13.00" fill="#2d3436">RT private</text>
</g>
<!-- af0bde2945f84cbd9635319544c7a9c7 -->
<g id="node5" class="node">
<title>af0bde2945f84cbd9635319544c7a9c7</title>
<image xlink:href="/Users/enriqueramirez/Documents/08-Dev/fo-orchestrator-v2/.venv/lib/python3.14/site-packages/resources/aws/network/private-subnet.png" width="100.8px" height="100.8px" preserveAspectRatio="xMinYMin meet" x="238.775" y="-165.4"/>
<text xml:space="preserve" text-anchor="middle" x="289.18" y="-47.75" font-family="Sans-Serif" font-size="13.00" fill="#2d3436">/24 each</text>
</g>
<!-- 4eb135a024f549e891acf87131359ab6&#45;&gt;af0bde2945f84cbd9635319544c7a9c7 -->
<g id="edge3" class="edge">
<title>4eb135a024f549e891acf87131359ab6&#45;&gt;af0bde2945f84cbd9635319544c7a9c7</title>
<path fill="none" stroke="#7b8894" d="M124.76,-115C124.76,-115 227.62,-115 227.62,-115"/>
<polygon fill="#7b8894" stroke="#7b8894" points="227.62,-118.5 237.62,-115 227.62,-111.5 227.62,-118.5"/>
</g>
<!-- 46fbd5b224a9435dadcb29f0e91ac6fd -->
<g id="node6" class="node">
<title>46fbd5b224a9435dadcb29f0e91ac6fd</title>
<image xlink:href="/Users/enriqueramirez/Documents/08-Dev/fo-orchestrator-v2/.venv/lib/python3.14/site-packages/resources/aws/compute/lambda.png" width="100.8px" height="100.8px" preserveAspectRatio="xMinYMin meet" x="24" y="-945.4"/>
<text xml:space="preserve" text-anchor="middle" x="74.4" y="-826.85" font-family="Sans-Serif" font-size="13.00" fill="#2d3436">Orchestrator Lambdas</text>
<text xml:space="preserve" text-anchor="middle" x="74.4" y="-813.35" font-family="Sans-Serif" font-size="13.00" fill="#2d3436">(VPC&#45;attached)</text>
</g>
<!-- 1f9638f789214777b4d8173eeb49fcb1 -->
<g id="node7" class="node">
<title>1f9638f789214777b4d8173eeb49fcb1</title>
<image xlink:href="/Users/enriqueramirez/Documents/08-Dev/fo-orchestrator-v2/.venv/lib/python3.14/site-packages/resources/aws/network/endpoint.png" width="100.8px" height="100.8px" preserveAspectRatio="xMinYMin meet" x="238.775" y="-345.4"/>
<text xml:space="preserve" text-anchor="middle" x="289.18" y="-227.75" font-family="Sans-Serif" font-size="13.00" fill="#2d3436">ssm</text>
</g>
<!-- 46fbd5b224a9435dadcb29f0e91ac6fd&#45;&gt;1f9638f789214777b4d8173eeb49fcb1 -->
<g id="edge4" class="edge">
<title>46fbd5b224a9435dadcb29f0e91ac6fd&#45;&gt;1f9638f789214777b4d8173eeb49fcb1</title>
<path fill="none" stroke="#7b8894" d="M49.1,-812.2C49.1,-647.61 49.1,-295 49.1,-295 49.1,-295 227.33,-295 227.33,-295"/>
<polygon fill="#7b8894" stroke="#7b8894" points="227.33,-298.5 237.33,-295 227.33,-291.5 227.33,-298.5"/>
<text xml:space="preserve" text-anchor="middle" x="173.93" y="-402.15" font-family="Sans-Serif" font-size="13.00" fill="#2d3436">HTTPS</text>
</g>
<!-- b26943efe0594040b081994a40344332 -->
<g id="node8" class="node">
<title>b26943efe0594040b081994a40344332</title>
<image xlink:href="/Users/enriqueramirez/Documents/08-Dev/fo-orchestrator-v2/.venv/lib/python3.14/site-packages/resources/aws/network/endpoint.png" width="100.8px" height="100.8px" preserveAspectRatio="xMinYMin meet" x="238.775" y="-525.4"/>
<text xml:space="preserve" text-anchor="middle" x="289.18" y="-407.75" font-family="Sans-Serif" font-size="13.00" fill="#2d3436">sns</text>
</g>
<!-- 46fbd5b224a9435dadcb29f0e91ac6fd&#45;&gt;b26943efe0594040b081994a40344332 -->
<g id="edge5" class="edge">
<title>46fbd5b224a9435dadcb29f0e91ac6fd&#45;&gt;b26943efe0594040b081994a40344332</title>
<path fill="none" stroke="#7b8894" d="M74.1,-812.27C74.1,-689.91 74.1,-475 74.1,-475 74.1,-475 227.51,-475 227.51,-475"/>
<polygon fill="#7b8894" stroke="#7b8894" points="227.51,-478.5 237.51,-475 227.51,-471.5 227.51,-478.5"/>
<text xml:space="preserve" text-anchor="middle" x="173.93" y="-571.15" font-family="Sans-Serif" font-size="13.00" fill="#2d3436">HTTPS</text>
</g>
<!-- 217aa43d022849ef906ce0ee76be2792 -->
<g id="node9" class="node">
<title>217aa43d022849ef906ce0ee76be2792</title>
<image xlink:href="/Users/enriqueramirez/Documents/08-Dev/fo-orchestrator-v2/.venv/lib/python3.14/site-packages/resources/aws/network/endpoint.png" width="100.8px" height="100.8px" preserveAspectRatio="xMinYMin meet" x="238.775" y="-705.4"/>
<text xml:space="preserve" text-anchor="middle" x="289.18" y="-587.75" font-family="Sans-Serif" font-size="13.00" fill="#2d3436">monitoring</text>
</g>
<!-- 46fbd5b224a9435dadcb29f0e91ac6fd&#45;&gt;217aa43d022849ef906ce0ee76be2792 -->
<g id="edge6" class="edge">
<title>46fbd5b224a9435dadcb29f0e91ac6fd&#45;&gt;217aa43d022849ef906ce0ee76be2792</title>
<path fill="none" stroke="#7b8894" d="M99.1,-812.41C99.1,-742.98 99.1,-655 99.1,-655 99.1,-655 227.72,-655 227.72,-655"/>
<polygon fill="#7b8894" stroke="#7b8894" points="227.72,-658.5 237.72,-655 227.72,-651.5 227.72,-658.5"/>
<text xml:space="preserve" text-anchor="middle" x="173.93" y="-729.15" font-family="Sans-Serif" font-size="13.00" fill="#2d3436">HTTPS</text>
</g>
<!-- d6831773c0ff4e13a839ffad02c81812 -->
<g id="node10" class="node">
<title>d6831773c0ff4e13a839ffad02c81812</title>
<image xlink:href="/Users/enriqueramirez/Documents/08-Dev/fo-orchestrator-v2/.venv/lib/python3.14/site-packages/resources/aws/network/endpoint.png" width="100.8px" height="100.8px" preserveAspectRatio="xMinYMin meet" x="238.775" y="-885.4"/>
<text xml:space="preserve" text-anchor="middle" x="289.18" y="-767.75" font-family="Sans-Serif" font-size="13.00" fill="#2d3436">logs</text>
</g>
<!-- 46fbd5b224a9435dadcb29f0e91ac6fd&#45;&gt;d6831773c0ff4e13a839ffad02c81812 -->
<g id="edge7" class="edge">
<title>46fbd5b224a9435dadcb29f0e91ac6fd&#45;&gt;d6831773c0ff4e13a839ffad02c81812</title>
<path fill="none" stroke="#7b8894" d="M124.76,-857.8C124.76,-857.8 227.62,-857.8 227.62,-857.8"/>
<polygon fill="#7b8894" stroke="#7b8894" points="227.62,-861.3 237.62,-857.8 227.62,-854.3 227.62,-861.3"/>
<text xml:space="preserve" text-anchor="middle" x="173.93" y="-865.15" font-family="Sans-Serif" font-size="13.00" fill="#2d3436">HTTPS</text>
</g>
<!-- 7c9853d7d0144ab195e438ab4a1f8fec -->
<g id="node11" class="node">
<title>7c9853d7d0144ab195e438ab4a1f8fec</title>
<image xlink:href="/Users/enriqueramirez/Documents/08-Dev/fo-orchestrator-v2/.venv/lib/python3.14/site-packages/resources/aws/network/endpoint.png" width="100.8px" height="100.8px" preserveAspectRatio="xMinYMin meet" x="238.775" y="-1065.4"/>
<text xml:space="preserve" text-anchor="middle" x="289.18" y="-947.75" font-family="Sans-Serif" font-size="13.00" fill="#2d3436">rds</text>
</g>
<!-- 46fbd5b224a9435dadcb29f0e91ac6fd&#45;&gt;7c9853d7d0144ab195e438ab4a1f8fec -->
<g id="edge8" class="edge">
<title>46fbd5b224a9435dadcb29f0e91ac6fd&#45;&gt;7c9853d7d0144ab195e438ab4a1f8fec</title>
<path fill="none" stroke="#7b8894" d="M124.76,-962.2C124.76,-962.2 227.62,-962.2 227.62,-962.2"/>
<polygon fill="#7b8894" stroke="#7b8894" points="227.62,-965.7 237.62,-962.2 227.62,-958.7 227.62,-965.7"/>
<text xml:space="preserve" text-anchor="middle" x="173.93" y="-986.15" font-family="Sans-Serif" font-size="13.00" fill="#2d3436">HTTPS</text>
</g>
<!-- bded5f3378fd486b9aa92eb9a2b05921 -->
<g id="node12" class="node">
<title>bded5f3378fd486b9aa92eb9a2b05921</title>
<image xlink:href="/Users/enriqueramirez/Documents/08-Dev/fo-orchestrator-v2/.venv/lib/python3.14/site-packages/resources/aws/network/endpoint.png" width="100.8px" height="100.8px" preserveAspectRatio="xMinYMin meet" x="238.775" y="-1245.4"/>
<text xml:space="preserve" text-anchor="middle" x="289.18" y="-1127.75" font-family="Sans-Serif" font-size="13.00" fill="#2d3436">states</text>
</g>
<!-- 46fbd5b224a9435dadcb29f0e91ac6fd&#45;&gt;bded5f3378fd486b9aa92eb9a2b05921 -->
<g id="edge9" class="edge">
<title>46fbd5b224a9435dadcb29f0e91ac6fd&#45;&gt;bded5f3378fd486b9aa92eb9a2b05921</title>
<path fill="none" stroke="#7b8894" d="M99.1,-977.77C99.1,-1066.57 99.1,-1195 99.1,-1195 99.1,-1195 227.72,-1195 227.72,-1195"/>
<polygon fill="#7b8894" stroke="#7b8894" points="227.72,-1198.5 237.72,-1195 227.72,-1191.5 227.72,-1198.5"/>
<text xml:space="preserve" text-anchor="middle" x="173.93" y="-1136.15" font-family="Sans-Serif" font-size="13.00" fill="#2d3436">HTTPS</text>
</g>
<!-- 48a81f7f338647d9830965d88695e498 -->
<g id="node13" class="node">
<title>48a81f7f338647d9830965d88695e498</title>
<image xlink:href="/Users/enriqueramirez/Documents/08-Dev/fo-orchestrator-v2/.venv/lib/python3.14/site-packages/resources/aws/network/endpoint.png" width="100.8px" height="100.8px" preserveAspectRatio="xMinYMin meet" x="238.775" y="-1425.4"/>
<text xml:space="preserve" text-anchor="middle" x="289.18" y="-1307.75" font-family="Sans-Serif" font-size="13.00" fill="#2d3436">health</text>
</g>
<!-- 46fbd5b224a9435dadcb29f0e91ac6fd&#45;&gt;48a81f7f338647d9830965d88695e498 -->
<g id="edge10" class="edge">
<title>46fbd5b224a9435dadcb29f0e91ac6fd&#45;&gt;48a81f7f338647d9830965d88695e498</title>
<path fill="none" stroke="#7b8894" d="M74.1,-977.79C74.1,-1115.1 74.1,-1375 74.1,-1375 74.1,-1375 227.51,-1375 227.51,-1375"/>
<polygon fill="#7b8894" stroke="#7b8894" points="227.51,-1378.5 237.51,-1375 227.51,-1371.5 227.51,-1378.5"/>
<text xml:space="preserve" text-anchor="middle" x="173.93" y="-1301.15" font-family="Sans-Serif" font-size="13.00" fill="#2d3436">HTTPS</text>
</g>
<!-- a9302f194a324652b69b1d3385ac7196 -->
<g id="node14" class="node">
<title>a9302f194a324652b69b1d3385ac7196</title>
<image xlink:href="/Users/enriqueramirez/Documents/08-Dev/fo-orchestrator-v2/.venv/lib/python3.14/site-packages/resources/aws/network/endpoint.png" width="100.8px" height="100.8px" preserveAspectRatio="xMinYMin meet" x="238.775" y="-1606.4"/>
<text xml:space="preserve" text-anchor="middle" x="289.18" y="-1488.75" font-family="Sans-Serif" font-size="13.00" fill="#2d3436">s3</text>
</g>
<!-- 46fbd5b224a9435dadcb29f0e91ac6fd&#45;&gt;a9302f194a324652b69b1d3385ac7196 -->
<g id="edge11" class="edge">
<title>46fbd5b224a9435dadcb29f0e91ac6fd&#45;&gt;a9302f194a324652b69b1d3385ac7196</title>
<path fill="none" stroke="#7b8894" d="M49.1,-977.71C49.1,-1155.08 49.1,-1556 49.1,-1556 49.1,-1556 227.33,-1556 227.33,-1556"/>
<polygon fill="#7b8894" stroke="#7b8894" points="227.33,-1559.5 237.33,-1556 227.33,-1552.5 227.33,-1559.5"/>
</g>
</g>
</svg>
