<?xml version="1.0" encoding="UTF-8" standalone="no"?>
<!DOCTYPE svg PUBLIC "-//W3C//DTD SVG 1.1//EN"
 "http://www.w3.org/Graphics/SVG/1.1/DTD/svg11.dtd">
<!-- Generated by graphviz version 14.1.5 (20260411.2331)
 -->
<!-- Title: VPC + Endpoints Pages: 1 -->
<svg width="899pt" height="3025pt"
 viewBox="0.00 0.00 899.00 3025.00" xmlns="http://www.w3.org/2000/svg" xmlns:xlink="http://www.w3.org/1999/xlink">
<g id="graph0" class="graph" transform="scale(1 1) rotate(0) translate(144 2881)">
<title>VPC + Endpoints</title>
<text xml:space="preserve" text-anchor="middle" x="305.68" y="-5.7" font-family="Sans-Serif" font-size="14.00" fill="#2d3436">VPC + Endpoints</text>
<g id="clust1" class="cluster">
<title>cluster_VPC us&#45;east&#45;1 (10.10.0.0/16)</title>
<path fill="#e5f5fd" stroke="#aeb6be" d="M20,-31C20,-31 591.35,-31 591.35,-31 597.35,-31 603.35,-37 603.35,-43 603.35,-43 603.35,-2717 603.35,-2717 603.35,-2723 597.35,-2729 591.35,-2729 591.35,-2729 20,-2729 20,-2729 14,-2729 8,-2723 8,-2717 8,-2717 8,-43 8,-43 8,-37 14,-31 20,-31"/>
<text xml:space="preserve" text-anchor="middle" x="93.25" y="-2713.6" font-family="Sans-Serif" font-size="12.00" fill="#2d3436">VPC us&#45;east&#45;1 (10.10.0.0/16)</text>
</g>
<g id="clust2" class="cluster">
<title>cluster_Routable subnets (a/b/c)</title>
<path fill="#ebf3e7" stroke="#aeb6be" d="M290.4,-2527C290.4,-2527 583.35,-2527 583.35,-2527 589.35,-2527 595.35,-2533 595.35,-2539 595.35,-2539 595.35,-2688 595.35,-2688 595.35,-2694 589.35,-2700 583.35,-2700 583.35,-2700 290.4,-2700 290.4,-2700 284.4,-2700 278.4,-2694 278.4,-2688 278.4,-2688 278.4,-2539 278.4,-2539 278.4,-2533 284.4,-2527 290.4,-2527"/>
<text xml:space="preserve" text-anchor="middle" x="351.28" y="-2684.6" font-family="Sans-Serif" font-size="12.00" fill="#2d3436">Routable subnets (a/b/c)</text>
</g>
<g id="clust3" class="cluster">
<title>cluster_Private subnets (a/b/c)</title>
<path fill="#ebf3e7" stroke="#aeb6be" d="M28,-39C28,-39 427.55,-39 427.55,-39 433.55,-39 439.55,-45 439.55,-51 439.55,-51 439.55,-2507 439.55,-2507 439.55,-2513 433.55,-2519 427.55,-2519 427.55,-2519 28,-2519 28,-2519 22,-2519 16,-2513 16,-2507 16,-2507 16,-51 16,-51 16,-45 22,-39 28,-39"/>
<text xml:space="preserve" text-anchor="middle" x="83.25" y="-2503.6" font-family="Sans-Serif" font-size="12.00" fill="#2d3436">Private subnets (a/b/c)</text>
</g>
<g id="clust4" class="cluster">
<title>cluster_Interface endpoints (10 required)</title>
<path fill="#ece8f6" stroke="#aeb6be" d="M255.05,-219C255.05,-219 419.55,-219 419.55,-219 425.55,-219 431.55,-225 431.55,-231 431.55,-231 431.55,-2058 431.55,-2058 431.55,-2064 425.55,-2070 419.55,-2070 419.55,-2070 255.05,-2070 255.05,-2070 249.05,-2070 243.05,-2064 243.05,-2058 243.05,-2058 243.05,-231 243.05,-231 243.05,-225 249.05,-219 255.05,-219"/>
<text xml:space="preserve" text-anchor="middle" x="337.3" y="-2054.6" font-family="Sans-Serif" font-size="12.00" fill="#2d3436">Interface endpoints (10 required)</text>
</g>
<g id="clust5" class="cluster">
<title>cluster_Optional</title>
<path fill="#ece8f6" stroke="#aeb6be" d="M290.4,-2078C290.4,-2078 383.2,-2078 383.2,-2078 389.2,-2078 395.2,-2084 395.2,-2090 395.2,-2090 395.2,-2297 395.2,-2297 395.2,-2303 389.2,-2309 383.2,-2309 383.2,-2309 290.4,-2309 290.4,-2309 284.4,-2309 278.4,-2303 278.4,-2297 278.4,-2297 278.4,-2090 278.4,-2090 278.4,-2084 284.4,-2078 290.4,-2078"/>
<text xml:space="preserve" text-anchor="middle" x="308.9" y="-2293.6" font-family="Sans-Serif" font-size="12.00" fill="#2d3436">Optional</text>
</g>
<g id="clust6" class="cluster">
<title>cluster_Gateway endpoint</title>
<path fill="#ece8f6" stroke="#aeb6be" d="M290.4,-2317C290.4,-2317 383.2,-2317 383.2,-2317 389.2,-2317 395.2,-2323 395.2,-2329 395.2,-2329 395.2,-2478 395.2,-2478 395.2,-2484 389.2,-2490 383.2,-2490 383.2,-2490 290.4,-2490 290.4,-2490 284.4,-2490 278.4,-2484 278.4,-2478 278.4,-2478 278.4,-2329 278.4,-2329 278.4,-2323 284.4,-2317 290.4,-2317"/>
<text xml:space="preserve" text-anchor="middle" x="334.78" y="-2474.6" font-family="Sans-Serif" font-size="12.00" fill="#2d3436">Gateway endpoint</text>
</g>
<!-- 41fc50e7331a4896b44d2af1d155c04b -->
<g id="node1" class="node">
<title>41fc50e7331a4896b44d2af1d155c04b</title>
<image xlink:href="/Users/enriqueramirez/Documents/08-Dev/fo-orchestrator-v2/.venv/lib/python3.14/site-packages/resources/aws/network/internet-gateway.png" width="100.8px" height="100.8px" preserveAspectRatio="xMinYMin meet" x="24" y="-2653.4"/>
<text xml:space="preserve" text-anchor="middle" x="74.4" y="-2535.75" font-family="Sans-Serif" font-size="13.00" fill="#2d3436">IGW</text>
</g>
<!-- 4e3d8ef0630c4e96b212c2de18a110ef -->
<g id="node2" class="node">
<title>4e3d8ef0630c4e96b212c2de18a110ef</title>
<image xlink:href="/Users/enriqueramirez/Documents/08-Dev/fo-orchestrator-v2/.venv/lib/python3.14/site-packages/resources/aws/network/route-table.png" width="100.8px" height="100.8px" preserveAspectRatio="xMinYMin meet" x="286.4" y="-2653.4"/>
<text xml:space="preserve" text-anchor="middle" x="336.8" y="-2535.75" font-family="Sans-Serif" font-size="13.00" fill="#2d3436">RT routable</text>
</g>
<!-- 41fc50e7331a4896b44d2af1d155c04b&#45;&gt;4e3d8ef0630c4e96b212c2de18a110ef -->
<g id="edge1" class="edge">
<title>41fc50e7331a4896b44d2af1d155c04b&#45;&gt;4e3d8ef0630c4e96b212c2de18a110ef</title>
<path fill="none" stroke="#7b8894" d="M124.68,-2603C124.68,-2603 275.17,-2603 275.17,-2603"/>
<polygon fill="#7b8894" stroke="#7b8894" points="275.17,-2606.5 285.17,-2603 275.17,-2599.5 275.17,-2606.5"/>
</g>
<!-- 404a3c1eec09451bbb786ae066a66325 -->
<g id="node3" class="node">
<title>404a3c1eec09451bbb786ae066a66325</title>
<image xlink:href="/Users/enriqueramirez/Documents/08-Dev/fo-orchestrator-v2/.venv/lib/python3.14/site-packages/resources/aws/network/public-subnet.png" width="100.8px" height="100.8px" preserveAspectRatio="xMinYMin meet" x="486.55" y="-2653.4"/>
<text xml:space="preserve" text-anchor="middle" x="536.95" y="-2535.75" font-family="Sans-Serif" font-size="13.00" fill="#2d3436">/24 each</text>
</g>
<!-- 4e3d8ef0630c4e96b212c2de18a110ef&#45;&gt;404a3c1eec09451bbb786ae066a66325 -->
<g id="edge2" class="edge">
<title>4e3d8ef0630c4e96b212c2de18a110ef&#45;&gt;404a3c1eec09451bbb786ae066a66325</title>
<path fill="none" stroke="#7b8894" d="M387.05,-2603C387.05,-2603 475.17,-2603 475.17,-2603"/>
<polygon fill="#7b8894" stroke="#7b8894" points="475.17,-2606.5 485.17,-2603 475.17,-2599.5 475.17,-2606.5"/>
</g>
<!-- 63a72749c66f4446babb0df8522335b7 -->
<g id="node4" class="node">
<title>63a72749c66f4446babb0df8522335b7</title>
<image xlink:href="/Users/enriqueramirez/Documents/08-Dev/fo-orchestrator-v2/.venv/lib/python3.14/site-packages/resources/aws/network/route-table.png" width="100.8px" height="100.8px" preserveAspectRatio="xMinYMin meet" x="24" y="-165.4"/>
<text xml:space="preserve" text-anchor="middle" x="74.4" y="-47.75" font-family="Sans-Serif" font-size="13.00" fill="#2d3436">RT private</text>
</g>
<!-- cbdea85b98bd4ca58470538be8a2df56 -->
<g id="node5" class="node">
<title>cbdea85b98bd4ca58470538be8a2df56</title>
<image xlink:href="/Users/enriqueramirez/Documents/08-Dev/fo-orchestrator-v2/.venv/lib/python3.14/site-packages/resources/aws/network/private-subnet.png" width="100.8px" height="100.8px" preserveAspectRatio="xMinYMin meet" x="286.4" y="-165.4"/>
<text xml:space="preserve" text-anchor="middle" x="336.8" y="-47.75" font-family="Sans-Serif" font-size="13.00" fill="#2d3436">/24 each</text>
</g>
<!-- 63a72749c66f4446babb0df8522335b7&#45;&gt;cbdea85b98bd4ca58470538be8a2df56 -->
<g id="edge3" class="edge">
<title>63a72749c66f4446babb0df8522335b7&#45;&gt;cbdea85b98bd4ca58470538be8a2df56</title>
<path fill="none" stroke="#7b8894" d="M124.68,-115C124.68,-115 275.17,-115 275.17,-115"/>
<polygon fill="#7b8894" stroke="#7b8894" points="275.17,-118.5 285.17,-115 275.17,-111.5 275.17,-118.5"/>
</g>
<!-- 938cbc643dde4a37a5e560c9fb23a2d3 -->
<g id="node6" class="node">
<title>938cbc643dde4a37a5e560c9fb23a2d3</title>
<image xlink:href="/Users/enriqueramirez/Documents/08-Dev/fo-orchestrator-v2/.venv/lib/python3.14/site-packages/resources/aws/compute/lambda.png" width="100.8px" height="100.8px" preserveAspectRatio="xMinYMin meet" x="24" y="-1392.4"/>
<text xml:space="preserve" text-anchor="middle" x="74.4" y="-1273.85" font-family="Sans-Serif" font-size="13.00" fill="#2d3436">Orchestrator Lambdas</text>
<text xml:space="preserve" text-anchor="middle" x="74.4" y="-1260.35" font-family="Sans-Serif" font-size="13.00" fill="#2d3436">(VPC&#45;attached)</text>
</g>
<!-- 913f46e0ec0641098f3d79de9573b1f4 -->
<g id="node7" class="node">
<title>913f46e0ec0641098f3d79de9573b1f4</title>
<image xlink:href="/Users/enriqueramirez/Documents/08-Dev/fo-orchestrator-v2/.venv/lib/python3.14/site-packages/resources/aws/network/endpoint.png" width="100.8px" height="100.8px" preserveAspectRatio="xMinYMin meet" x="286.4" y="-345.4"/>
<text xml:space="preserve" text-anchor="middle" x="336.8" y="-227.75" font-family="Sans-Serif" font-size="13.00" fill="#2d3436">ssm</text>
</g>
<!-- 938cbc643dde4a37a5e560c9fb23a2d3&#45;&gt;913f46e0ec0641098f3d79de9573b1f4 -->
<g id="edge4" class="edge">
<title>938cbc643dde4a37a5e560c9fb23a2d3&#45;&gt;913f46e0ec0641098f3d79de9573b1f4</title>
<path fill="none" stroke="#7b8894" d="M40.35,-1259.41C40.35,-1012.18 40.35,-295 40.35,-295 40.35,-295 275,-295 275,-295"/>
<polygon fill="#7b8894" stroke="#7b8894" points="275,-298.5 285,-295 275,-291.5 275,-298.5"/>
<text xml:space="preserve" text-anchor="middle" x="179.93" y="-423.15" font-family="Sans-Serif" font-size="13.00" fill="#2d3436">HTTPS</text>
</g>
<!-- 780f8df735ec40eb816c9b9b0f9fb0e9 -->
<g id="node8" class="node">
<title>780f8df735ec40eb816c9b9b0f9fb0e9</title>
<image xlink:href="/Users/enriqueramirez/Documents/08-Dev/fo-orchestrator-v2/.venv/lib/python3.14/site-packages/resources/aws/network/endpoint.png" width="100.8px" height="100.8px" preserveAspectRatio="xMinYMin meet" x="286.4" y="-525.4"/>
<text xml:space="preserve" text-anchor="middle" x="336.8" y="-407.75" font-family="Sans-Serif" font-size="13.00" fill="#2d3436">sns</text>
</g>
<!-- 938cbc643dde4a37a5e560c9fb23a2d3&#45;&gt;780f8df735ec40eb816c9b9b0f9fb0e9 -->
<g id="edge5" class="edge">
<title>938cbc643dde4a37a5e560c9fb23a2d3&#45;&gt;780f8df735ec40eb816c9b9b0f9fb0e9</title>
<path fill="none" stroke="#7b8894" d="M57.35,-1259.26C57.35,-1042.55 57.35,-475 57.35,-475 57.35,-475 275,-475 275,-475"/>
<polygon fill="#7b8894" stroke="#7b8894" points="275,-478.5 285,-475 275,-471.5 275,-478.5"/>
<text xml:space="preserve" text-anchor="middle" x="179.93" y="-612.15" font-family="Sans-Serif" font-size="13.00" fill="#2d3436">HTTPS</text>
</g>
<!-- fa7049c1e8894462b005da773c877a6c -->
<g id="node9" class="node">
<title>fa7049c1e8894462b005da773c877a6c</title>
<image xlink:href="/Users/enriqueramirez/Documents/08-Dev/fo-orchestrator-v2/.venv/lib/python3.14/site-packages/resources/aws/network/endpoint.png" width="100.8px" height="100.8px" preserveAspectRatio="xMinYMin meet" x="286.4" y="-734.4"/>
<text xml:space="preserve" text-anchor="middle" x="336.8" y="-614.95" font-family="Sans-Serif" font-size="13.00" fill="#2d3436">monitoring</text>
<text xml:space="preserve" text-anchor="middle" x="336.8" y="-601.45" font-family="Sans-Serif" font-size="13.00" fill="#2d3436">(also: CloudWatchSynthetics</text>
<text xml:space="preserve" text-anchor="middle" x="336.8" y="-587.95" font-family="Sans-Serif" font-size="13.00" fill="#2d3436">canary metrics)</text>
</g>
<!-- 938cbc643dde4a37a5e560c9fb23a2d3&#45;&gt;fa7049c1e8894462b005da773c877a6c -->
<g id="edge6" class="edge">
<title>938cbc643dde4a37a5e560c9fb23a2d3&#45;&gt;fa7049c1e8894462b005da773c877a6c</title>
<path fill="none" stroke="#7b8894" d="M74.35,-1259.33C74.35,-1082.6 74.35,-684 74.35,-684 74.35,-684 274.99,-684 274.99,-684"/>
<polygon fill="#7b8894" stroke="#7b8894" points="274.99,-687.5 284.99,-684 274.99,-680.5 274.99,-687.5"/>
<text xml:space="preserve" text-anchor="middle" x="179.93" y="-810.15" font-family="Sans-Serif" font-size="13.00" fill="#2d3436">HTTPS</text>
</g>
<!-- a504d5b910ce4930b1ef76521752641c -->
<g id="node10" class="node">
<title>a504d5b910ce4930b1ef76521752641c</title>
<image xlink:href="/Users/enriqueramirez/Documents/08-Dev/fo-orchestrator-v2/.venv/lib/python3.14/site-packages/resources/aws/network/endpoint.png" width="100.8px" height="100.8px" preserveAspectRatio="xMinYMin meet" x="286.4" y="-943.4"/>
<text xml:space="preserve" text-anchor="middle" x="336.8" y="-825.75" font-family="Sans-Serif" font-size="13.00" fill="#2d3436">logs</text>
</g>
<!-- 938cbc643dde4a37a5e560c9fb23a2d3&#45;&gt;a504d5b910ce4930b1ef76521752641c -->
<g id="edge7" class="edge">
<title>938cbc643dde4a37a5e560c9fb23a2d3&#45;&gt;a504d5b910ce4930b1ef76521752641c</title>
<path fill="none" stroke="#7b8894" d="M91.35,-1259.38C91.35,-1129.71 91.35,-893 91.35,-893 91.35,-893 275.02,-893 275.02,-893"/>
<polygon fill="#7b8894" stroke="#7b8894" points="275.02,-896.5 285.02,-893 275.02,-889.5 275.02,-896.5"/>
<text xml:space="preserve" text-anchor="middle" x="179.93" y="-997.15" font-family="Sans-Serif" font-size="13.00" fill="#2d3436">HTTPS</text>
</g>
<!-- d76c5af0470248caa7086b1c578d7c68 -->
<g id="node11" class="node">
<title>d76c5af0470248caa7086b1c578d7c68</title>
<image xlink:href="/Users/enriqueramirez/Documents/08-Dev/fo-orchestrator-v2/.venv/lib/python3.14/site-packages/resources/aws/network/endpoint.png" width="100.8px" height="100.8px" preserveAspectRatio="xMinYMin meet" x="286.4" y="-1123.4"/>
<text xml:space="preserve" text-anchor="middle" x="336.8" y="-1005.75" font-family="Sans-Serif" font-size="13.00" fill="#2d3436">rds</text>
</g>
<!-- 938cbc643dde4a37a5e560c9fb23a2d3&#45;&gt;d76c5af0470248caa7086b1c578d7c68 -->
<g id="edge8" class="edge">
<title>938cbc643dde4a37a5e560c9fb23a2d3&#45;&gt;d76c5af0470248caa7086b1c578d7c68</title>
<path fill="none" stroke="#7b8894" d="M108.35,-1259.46C108.35,-1180.39 108.35,-1073 108.35,-1073 108.35,-1073 275.15,-1073 275.15,-1073"/>
<polygon fill="#7b8894" stroke="#7b8894" points="275.15,-1076.5 285.15,-1073 275.15,-1069.5 275.15,-1076.5"/>
<text xml:space="preserve" text-anchor="middle" x="179.93" y="-1162.15" font-family="Sans-Serif" font-size="13.00" fill="#2d3436">HTTPS</text>
</g>
<!-- c660b4f5e2b14474a5a6545ed760ab8a -->
<g id="node12" class="node">
<title>c660b4f5e2b14474a5a6545ed760ab8a</title>
<image xlink:href="/Users/enriqueramirez/Documents/08-Dev/fo-orchestrator-v2/.venv/lib/python3.14/site-packages/resources/aws/network/endpoint.png" width="100.8px" height="100.8px" preserveAspectRatio="xMinYMin meet" x="286.4" y="-1303.4"/>
<text xml:space="preserve" text-anchor="middle" x="336.8" y="-1185.75" font-family="Sans-Serif" font-size="13.00" fill="#2d3436">states</text>
</g>
<!-- 938cbc643dde4a37a5e560c9fb23a2d3&#45;&gt;c660b4f5e2b14474a5a6545ed760ab8a -->
<g id="edge9" class="edge">
<title>938cbc643dde4a37a5e560c9fb23a2d3&#45;&gt;c660b4f5e2b14474a5a6545ed760ab8a</title>
<path fill="none" stroke="#7b8894" d="M124.68,-1290.3C124.68,-1290.3 275.17,-1290.3 275.17,-1290.3"/>
<polygon fill="#7b8894" stroke="#7b8894" points="275.17,-1293.8 285.17,-1290.3 275.17,-1286.8 275.17,-1293.8"/>
<text xml:space="preserve" text-anchor="middle" x="179.93" y="-1283.15" font-family="Sans-Serif" font-size="13.00" fill="#2d3436">HTTPS</text>
</g>
<!-- 06901dfc2f254bc8b1567e285092c5e0 -->
<g id="node13" class="node">
<title>06901dfc2f254bc8b1567e285092c5e0</title>
<image xlink:href="/Users/enriqueramirez/Documents/08-Dev/fo-orchestrator-v2/.venv/lib/python3.14/site-packages/resources/aws/network/endpoint.png" width="100.8px" height="100.8px" preserveAspectRatio="xMinYMin meet" x="286.4" y="-1483.4"/>
<text xml:space="preserve" text-anchor="middle" x="336.8" y="-1365.75" font-family="Sans-Serif" font-size="13.00" fill="#2d3436">events</text>
</g>
<!-- 938cbc643dde4a37a5e560c9fb23a2d3&#45;&gt;06901dfc2f254bc8b1567e285092c5e0 -->
<g id="edge10" class="edge">
<title>938cbc643dde4a37a5e560c9fb23a2d3&#45;&gt;06901dfc2f254bc8b1567e285092c5e0</title>
<path fill="none" stroke="#7b8894" d="M124.68,-1394.7C124.68,-1394.7 275.17,-1394.7 275.17,-1394.7"/>
<polygon fill="#7b8894" stroke="#7b8894" points="275.17,-1398.2 285.17,-1394.7 275.17,-1391.2 275.17,-1398.2"/>
<text xml:space="preserve" text-anchor="middle" x="179.93" y="-1404.15" font-family="Sans-Serif" font-size="13.00" fill="#2d3436">HTTPS</text>
</g>
<!-- 39895ae7ac3f41e0801adc67caaa136c -->
<g id="node14" class="node">
<title>39895ae7ac3f41e0801adc67caaa136c</title>
<image xlink:href="/Users/enriqueramirez/Documents/08-Dev/fo-orchestrator-v2/.venv/lib/python3.14/site-packages/resources/aws/network/endpoint.png" width="100.8px" height="100.8px" preserveAspectRatio="xMinYMin meet" x="286.4" y="-1663.4"/>
<text xml:space="preserve" text-anchor="middle" x="336.8" y="-1545.75" font-family="Sans-Serif" font-size="13.00" fill="#2d3436">lambda</text>
</g>
<!-- 938cbc643dde4a37a5e560c9fb23a2d3&#45;&gt;39895ae7ac3f41e0801adc67caaa136c -->
<g id="edge11" class="edge">
<title>938cbc643dde4a37a5e560c9fb23a2d3&#45;&gt;39895ae7ac3f41e0801adc67caaa136c</title>
<path fill="none" stroke="#7b8894" d="M108.35,-1424.78C108.35,-1504.48 108.35,-1613 108.35,-1613 108.35,-1613 275.15,-1613 275.15,-1613"/>
<polygon fill="#7b8894" stroke="#7b8894" points="275.15,-1616.5 285.15,-1613 275.15,-1609.5 275.15,-1616.5"/>
<text xml:space="preserve" text-anchor="middle" x="179.93" y="-1554.15" font-family="Sans-Serif" font-size="13.00" fill="#2d3436">HTTPS</text>
</g>
<!-- 06f9859c2bc442e88ce269aa10a90513 -->
<g id="node15" class="node">
<title>06f9859c2bc442e88ce269aa10a90513</title>
<image xlink:href="/Users/enriqueramirez/Documents/08-Dev/fo-orchestrator-v2/.venv/lib/python3.14/site-packages/resources/aws/network/endpoint.png" width="100.8px" height="100.8px" preserveAspectRatio="xMinYMin meet" x="286.4" y="-1843.4"/>
<text xml:space="preserve" text-anchor="middle" x="336.8" y="-1725.75" font-family="Sans-Serif" font-size="13.00" fill="#2d3436">sts</text>
</g>
<!-- 938cbc643dde4a37a5e560c9fb23a2d3&#45;&gt;06f9859c2bc442e88ce269aa10a90513 -->
<g id="edge12" class="edge">
<title>938cbc643dde4a37a5e560c9fb23a2d3&#45;&gt;06f9859c2bc442e88ce269aa10a90513</title>
<path fill="none" stroke="#7b8894" d="M91.35,-1424.72C91.35,-1554.92 91.35,-1793 91.35,-1793 91.35,-1793 275.02,-1793 275.02,-1793"/>
<polygon fill="#7b8894" stroke="#7b8894" points="275.02,-1796.5 285.02,-1793 275.02,-1789.5 275.02,-1796.5"/>
<text xml:space="preserve" text-anchor="middle" x="179.93" y="-1719.15" font-family="Sans-Serif" font-size="13.00" fill="#2d3436">HTTPS</text>
</g>
<!-- c034beb6952d40faa4b3ea72884fd8f6 -->
<g id="node16" class="node">
<title>c034beb6952d40faa4b3ea72884fd8f6</title>
<image xlink:href="/Users/enriqueramirez/Documents/08-Dev/fo-orchestrator-v2/.venv/lib/python3.14/site-packages/resources/aws/network/endpoint.png" width="100.8px" height="100.8px" preserveAspectRatio="xMinYMin meet" x="286.4" y="-2023.4"/>
<text xml:space="preserve" text-anchor="middle" x="336.8" y="-1905.75" font-family="Sans-Serif" font-size="13.00" fill="#2d3436">secretsmanager</text>
</g>
<!-- 938cbc643dde4a37a5e560c9fb23a2d3&#45;&gt;c034beb6952d40faa4b3ea72884fd8f6 -->
<g id="edge13" class="edge">
<title>938cbc643dde4a37a5e560c9fb23a2d3&#45;&gt;c034beb6952d40faa4b3ea72884fd8f6</title>
<path fill="none" stroke="#7b8894" d="M74.35,-1424.49C74.35,-1595.53 74.35,-1973 74.35,-1973 74.35,-1973 274.99,-1973 274.99,-1973"/>
<polygon fill="#7b8894" stroke="#7b8894" points="274.99,-1976.5 284.99,-1973 274.99,-1969.5 274.99,-1976.5"/>
<text xml:space="preserve" text-anchor="middle" x="179.93" y="-1892.15" font-family="Sans-Serif" font-size="13.00" fill="#2d3436">HTTPS</text>
</g>
<!-- 736e80117e0f43f0bc0279a5f01c619a -->
<g id="node17" class="node">
<title>736e80117e0f43f0bc0279a5f01c619a</title>
<image xlink:href="/Users/enriqueramirez/Documents/08-Dev/fo-orchestrator-v2/.venv/lib/python3.14/site-packages/resources/aws/network/endpoint.png" width="100.8px" height="100.8px" preserveAspectRatio="xMinYMin meet" x="286.4" y="-2233.4"/>
<text xml:space="preserve" text-anchor="middle" x="336.8" y="-2113.95" font-family="Sans-Serif" font-size="13.00" fill="#2d3436">health</text>
<text xml:space="preserve" text-anchor="middle" x="336.8" y="-2100.45" font-family="Sans-Serif" font-size="13.00" fill="#2d3436">(only if Business+</text>
<text xml:space="preserve" text-anchor="middle" x="336.8" y="-2086.95" font-family="Sans-Serif" font-size="13.00" fill="#2d3436">Support)</text>
</g>
<!-- 938cbc643dde4a37a5e560c9fb23a2d3&#45;&gt;736e80117e0f43f0bc0279a5f01c619a -->
<g id="edge14" class="edge">
<title>938cbc643dde4a37a5e560c9fb23a2d3&#45;&gt;736e80117e0f43f0bc0279a5f01c619a</title>
<path fill="none" stroke="#7b8894" stroke-dasharray="5,2" d="M57.35,-1424.55C57.35,-1636.45 57.35,-2183 57.35,-2183 57.35,-2183 275,-2183 275,-2183"/>
<polygon fill="#7b8894" stroke="#7b8894" points="275,-2186.5 285,-2183 275,-2179.5 275,-2186.5"/>
<text xml:space="preserve" text-anchor="middle" x="179.93" y="-2096.65" font-family="Sans-Serif" font-size="13.00" fill="#2d3436">HTTPS</text>
<text xml:space="preserve" text-anchor="middle" x="179.93" y="-2083.15" font-family="Sans-Serif" font-size="13.00" fill="#2d3436">(optional)</text>
</g>
<!-- af4d2ccdc22641d487d59103dbca632b -->
<g id="node18" class="node">
<title>af4d2ccdc22641d487d59103dbca632b</title>
<image xlink:href="/Users/enriqueramirez/Documents/08-Dev/fo-orchestrator-v2/.venv/lib/python3.14/site-packages/resources/aws/network/endpoint.png" width="100.8px" height="100.8px" preserveAspectRatio="xMinYMin meet" x="286.4" y="-2443.4"/>
<text xml:space="preserve" text-anchor="middle" x="336.8" y="-2325.75" font-family="Sans-Serif" font-size="13.00" fill="#2d3436">s3</text>
</g>
<!-- 938cbc643dde4a37a5e560c9fb23a2d3&#45;&gt;af4d2ccdc22641d487d59103dbca632b -->
<g id="edge15" class="edge">
<title>938cbc643dde4a37a5e560c9fb23a2d3&#45;&gt;af4d2ccdc22641d487d59103dbca632b</title>
<path fill="none" stroke="#7b8894" d="M40.35,-1424.47C40.35,-1672.23 40.35,-2393 40.35,-2393 40.35,-2393 275,-2393 275,-2393"/>
<polygon fill="#7b8894" stroke="#7b8894" points="275,-2396.5 285,-2393 275,-2389.5 275,-2396.5"/>
</g>
</g>
</svg>
