<?xml version="1.0" encoding="UTF-8" standalone="no"?>
<!DOCTYPE svg PUBLIC "-//W3C//DTD SVG 1.1//EN"
 "http://www.w3.org/Graphics/SVG/1.1/DTD/svg11.dtd">
<!-- Generated by graphviz version 14.1.5 (20260411.2331)
 -->
<!-- Title: VPC + Endpoints Pages: 1 -->
<svg width="840pt" height="3117pt"
 viewBox="0.00 0.00 840.00 3117.00" xmlns="http://www.w3.org/2000/svg" xmlns:xlink="http://www.w3.org/1999/xlink">
<g id="graph0" class="graph" transform="scale(1 1) rotate(0) translate(144 2973)">
<title>VPC + Endpoints</title>
<text xml:space="preserve" text-anchor="middle" x="276.05" y="-5.7" font-family="Sans-Serif" font-size="14.00" fill="#2d3436">VPC + Endpoints</text>
<g id="clust1" class="cluster">
<title>cluster_VPC us&#45;east&#45;1 (10.10.0.0/16)</title>
<path fill="#e5f5fd" stroke="#aeb6be" d="M20,-31C20,-31 532.1,-31 532.1,-31 538.1,-31 544.1,-37 544.1,-43 544.1,-43 544.1,-2809 544.1,-2809 544.1,-2815 538.1,-2821 532.1,-2821 532.1,-2821 20,-2821 20,-2821 14,-2821 8,-2815 8,-2809 8,-2809 8,-43 8,-43 8,-37 14,-31 20,-31"/>
<text xml:space="preserve" text-anchor="middle" x="93.25" y="-2805.6" font-family="Sans-Serif" font-size="12.00" fill="#2d3436">VPC us&#45;east&#45;1 (10.10.0.0/16)</text>
</g>
<g id="clust2" class="cluster">
<title>cluster_Routable subnets (a/b/c)</title>
<path fill="#ebf3e7" stroke="#aeb6be" d="M254.78,-2619C254.78,-2619 524.1,-2619 524.1,-2619 530.1,-2619 536.1,-2625 536.1,-2631 536.1,-2631 536.1,-2780 536.1,-2780 536.1,-2786 530.1,-2792 524.1,-2792 524.1,-2792 254.78,-2792 254.78,-2792 248.78,-2792 242.78,-2786 242.78,-2780 242.78,-2780 242.78,-2631 242.78,-2631 242.78,-2625 248.78,-2619 254.78,-2619"/>
<text xml:space="preserve" text-anchor="middle" x="315.65" y="-2776.6" font-family="Sans-Serif" font-size="12.00" fill="#2d3436">Routable subnets (a/b/c)</text>
</g>
<g id="clust3" class="cluster">
<title>cluster_Private subnets (a/b/c)</title>
<path fill="#ebf3e7" stroke="#aeb6be" d="M28,-39C28,-39 368.3,-39 368.3,-39 374.3,-39 380.3,-45 380.3,-51 380.3,-51 380.3,-2599 380.3,-2599 380.3,-2605 374.3,-2611 368.3,-2611 368.3,-2611 28,-2611 28,-2611 22,-2611 16,-2605 16,-2599 16,-2599 16,-51 16,-51 16,-45 22,-39 28,-39"/>
<text xml:space="preserve" text-anchor="middle" x="83.25" y="-2595.6" font-family="Sans-Serif" font-size="12.00" fill="#2d3436">Private subnets (a/b/c)</text>
</g>
<g id="clust4" class="cluster">
<title>cluster_Interface endpoints (12)</title>
<path fill="#ece8f6" stroke="#aeb6be" d="M243.05,-219C243.05,-219 360.3,-219 360.3,-219 366.3,-219 372.3,-225 372.3,-231 372.3,-231 372.3,-2389 372.3,-2389 372.3,-2395 366.3,-2401 360.3,-2401 360.3,-2401 243.05,-2401 243.05,-2401 237.05,-2401 231.05,-2395 231.05,-2389 231.05,-2389 231.05,-231 231.05,-231 231.05,-225 237.05,-219 243.05,-219"/>
<text xml:space="preserve" text-anchor="middle" x="301.68" y="-2385.6" font-family="Sans-Serif" font-size="12.00" fill="#2d3436">Interface endpoints (12)</text>
</g>
<g id="clust5" class="cluster">
<title>cluster_Gateway endpoint</title>
<path fill="#ece8f6" stroke="#aeb6be" d="M254.78,-2409C254.78,-2409 347.58,-2409 347.58,-2409 353.58,-2409 359.58,-2415 359.58,-2421 359.58,-2421 359.58,-2570 359.58,-2570 359.58,-2576 353.58,-2582 347.58,-2582 347.58,-2582 254.78,-2582 254.78,-2582 248.78,-2582 242.78,-2576 242.78,-2570 242.78,-2570 242.78,-2421 242.78,-2421 242.78,-2415 248.78,-2409 254.78,-2409"/>
<text xml:space="preserve" text-anchor="middle" x="299.15" y="-2566.6" font-family="Sans-Serif" font-size="12.00" fill="#2d3436">Gateway endpoint</text>
</g>
<!-- 9df7ec1489fc4ec6a05552097ac22f10 -->
<g id="node1" class="node">
<title>9df7ec1489fc4ec6a05552097ac22f10</title>
<image xlink:href="/Users/enriqueramirez/Documents/08-Dev/fo-orchestrator-v2/.venv/lib/python3.14/site-packages/resources/aws/network/internet-gateway.png" width="100.8px" height="100.8px" preserveAspectRatio="xMinYMin meet" x="24" y="-2745.4"/>
<text xml:space="preserve" text-anchor="middle" x="74.4" y="-2627.75" font-family="Sans-Serif" font-size="13.00" fill="#2d3436">IGW</text>
</g>
<!-- f16b3b8cccfd4384a4aead45e0c1ca08 -->
<g id="node2" class="node">
<title>f16b3b8cccfd4384a4aead45e0c1ca08</title>
<image xlink:href="/Users/enriqueramirez/Documents/08-Dev/fo-orchestrator-v2/.venv/lib/python3.14/site-packages/resources/aws/network/route-table.png" width="100.8px" height="100.8px" preserveAspectRatio="xMinYMin meet" x="250.775" y="-2745.4"/>
<text xml:space="preserve" text-anchor="middle" x="301.18" y="-2627.75" font-family="Sans-Serif" font-size="13.00" fill="#2d3436">RT routable</text>
</g>
<!-- 9df7ec1489fc4ec6a05552097ac22f10&#45;&gt;f16b3b8cccfd4384a4aead45e0c1ca08 -->
<g id="edge1" class="edge">
<title>9df7ec1489fc4ec6a05552097ac22f10&#45;&gt;f16b3b8cccfd4384a4aead45e0c1ca08</title>
<path fill="none" stroke="#7b8894" d="M124.73,-2695C124.73,-2695 239.47,-2695 239.47,-2695"/>
<polygon fill="#7b8894" stroke="#7b8894" points="239.47,-2698.5 249.47,-2695 239.47,-2691.5 239.47,-2698.5"/>
</g>
<!-- 70247e0f95d5452783e3091bdf1a83c6 -->
<g id="node3" class="node">
<title>70247e0f95d5452783e3091bdf1a83c6</title>
<image xlink:href="/Users/enriqueramirez/Documents/08-Dev/fo-orchestrator-v2/.venv/lib/python3.14/site-packages/resources/aws/network/public-subnet.png" width="100.8px" height="100.8px" preserveAspectRatio="xMinYMin meet" x="427.3" y="-2745.4"/>
<text xml:space="preserve" text-anchor="middle" x="477.7" y="-2627.75" font-family="Sans-Serif" font-size="13.00" fill="#2d3436">/24 each</text>
</g>
<!-- f16b3b8cccfd4384a4aead45e0c1ca08&#45;&gt;70247e0f95d5452783e3091bdf1a83c6 -->
<g id="edge2" class="edge">
<title>f16b3b8cccfd4384a4aead45e0c1ca08&#45;&gt;70247e0f95d5452783e3091bdf1a83c6</title>
<path fill="none" stroke="#7b8894" d="M351.29,-2695C351.29,-2695 415.95,-2695 415.95,-2695"/>
<polygon fill="#7b8894" stroke="#7b8894" points="415.95,-2698.5 425.95,-2695 415.95,-2691.5 415.95,-2698.5"/>
</g>
<!-- 62afac281ccd49e29c7d3d1af4a06712 -->
<g id="node4" class="node">
<title>62afac281ccd49e29c7d3d1af4a06712</title>
<image xlink:href="/Users/enriqueramirez/Documents/08-Dev/fo-orchestrator-v2/.venv/lib/python3.14/site-packages/resources/aws/network/route-table.png" width="100.8px" height="100.8px" preserveAspectRatio="xMinYMin meet" x="24" y="-165.4"/>
<text xml:space="preserve" text-anchor="middle" x="74.4" y="-47.75" font-family="Sans-Serif" font-size="13.00" fill="#2d3436">RT private</text>
</g>
<!-- 6995d06821db4344a58722dc50ade8ca -->
<g id="node5" class="node">
<title>6995d06821db4344a58722dc50ade8ca</title>
<image xlink:href="/Users/enriqueramirez/Documents/08-Dev/fo-orchestrator-v2/.venv/lib/python3.14/site-packages/resources/aws/network/private-subnet.png" width="100.8px" height="100.8px" preserveAspectRatio="xMinYMin meet" x="250.775" y="-165.4"/>
<text xml:space="preserve" text-anchor="middle" x="301.18" y="-47.75" font-family="Sans-Serif" font-size="13.00" fill="#2d3436">/24 each</text>
</g>
<!-- 62afac281ccd49e29c7d3d1af4a06712&#45;&gt;6995d06821db4344a58722dc50ade8ca -->
<g id="edge3" class="edge">
<title>62afac281ccd49e29c7d3d1af4a06712&#45;&gt;6995d06821db4344a58722dc50ade8ca</title>
<path fill="none" stroke="#7b8894" d="M124.73,-115C124.73,-115 239.47,-115 239.47,-115"/>
<polygon fill="#7b8894" stroke="#7b8894" points="239.47,-118.5 249.47,-115 239.47,-111.5 239.47,-118.5"/>
</g>
<!-- f9a8d34c778d40abb55ee56912c4962c -->
<g id="node6" class="node">
<title>f9a8d34c778d40abb55ee56912c4962c</title>
<image xlink:href="/Users/enriqueramirez/Documents/08-Dev/fo-orchestrator-v2/.venv/lib/python3.14/site-packages/resources/aws/compute/lambda.png" width="100.8px" height="100.8px" preserveAspectRatio="xMinYMin meet" x="24" y="-1425.4"/>
<text xml:space="preserve" text-anchor="middle" x="74.4" y="-1306.85" font-family="Sans-Serif" font-size="13.00" fill="#2d3436">Orchestrator Lambdas</text>
<text xml:space="preserve" text-anchor="middle" x="74.4" y="-1293.35" font-family="Sans-Serif" font-size="13.00" fill="#2d3436">(VPC&#45;attached)</text>
</g>
<!-- f2d66765fc8442e0897decadbb20b516 -->
<g id="node7" class="node">
<title>f2d66765fc8442e0897decadbb20b516</title>
<image xlink:href="/Users/enriqueramirez/Documents/08-Dev/fo-orchestrator-v2/.venv/lib/python3.14/site-packages/resources/aws/network/endpoint.png" width="100.8px" height="100.8px" preserveAspectRatio="xMinYMin meet" x="250.775" y="-345.4"/>
<text xml:space="preserve" text-anchor="middle" x="301.18" y="-227.75" font-family="Sans-Serif" font-size="13.00" fill="#2d3436">ssm</text>
</g>
<!-- f9a8d34c778d40abb55ee56912c4962c&#45;&gt;f2d66765fc8442e0897decadbb20b516 -->
<g id="edge4" class="edge">
<title>f9a8d34c778d40abb55ee56912c4962c&#45;&gt;f2d66765fc8442e0897decadbb20b516</title>
<path fill="none" stroke="#7b8894" d="M41.1,-1292.49C41.1,-1040.03 41.1,-295 41.1,-295 41.1,-295 239.52,-295 239.52,-295"/>
<polygon fill="#7b8894" stroke="#7b8894" points="239.52,-298.5 249.52,-295 239.52,-291.5 239.52,-298.5"/>
<text xml:space="preserve" text-anchor="middle" x="173.93" y="-410.15" font-family="Sans-Serif" font-size="13.00" fill="#2d3436">HTTPS</text>
</g>
<!-- 85cf5f0db7424feba4a6b5f958602d3e -->
<g id="node8" class="node">
<title>85cf5f0db7424feba4a6b5f958602d3e</title>
<image xlink:href="/Users/enriqueramirez/Documents/08-Dev/fo-orchestrator-v2/.venv/lib/python3.14/site-packages/resources/aws/network/endpoint.png" width="100.8px" height="100.8px" preserveAspectRatio="xMinYMin meet" x="250.775" y="-525.4"/>
<text xml:space="preserve" text-anchor="middle" x="301.18" y="-407.75" font-family="Sans-Serif" font-size="13.00" fill="#2d3436">sns</text>
</g>
<!-- f9a8d34c778d40abb55ee56912c4962c&#45;&gt;85cf5f0db7424feba4a6b5f958602d3e -->
<g id="edge5" class="edge">
<title>f9a8d34c778d40abb55ee56912c4962c&#45;&gt;85cf5f0db7424feba4a6b5f958602d3e</title>
<path fill="none" stroke="#7b8894" d="M57.1,-1292.34C57.1,-1069.85 57.1,-475 57.1,-475 57.1,-475 239.38,-475 239.38,-475"/>
<polygon fill="#7b8894" stroke="#7b8894" points="239.38,-478.5 249.38,-475 239.38,-471.5 239.38,-478.5"/>
<text xml:space="preserve" text-anchor="middle" x="173.93" y="-586.15" font-family="Sans-Serif" font-size="13.00" fill="#2d3436">HTTPS</text>
</g>
<!-- de4dce71c9ed441d9ba67c1f10d30b01 -->
<g id="node9" class="node">
<title>de4dce71c9ed441d9ba67c1f10d30b01</title>
<image xlink:href="/Users/enriqueramirez/Documents/08-Dev/fo-orchestrator-v2/.venv/lib/python3.14/site-packages/resources/aws/network/endpoint.png" width="100.8px" height="100.8px" preserveAspectRatio="xMinYMin meet" x="250.775" y="-705.4"/>
<text xml:space="preserve" text-anchor="middle" x="301.18" y="-587.75" font-family="Sans-Serif" font-size="13.00" fill="#2d3436">monitoring</text>
</g>
<!-- f9a8d34c778d40abb55ee56912c4962c&#45;&gt;de4dce71c9ed441d9ba67c1f10d30b01 -->
<g id="edge6" class="edge">
<title>f9a8d34c778d40abb55ee56912c4962c&#45;&gt;de4dce71c9ed441d9ba67c1f10d30b01</title>
<path fill="none" stroke="#7b8894" d="M74.1,-1292.41C74.1,-1103.29 74.1,-655 74.1,-655 74.1,-655 239.27,-655 239.27,-655"/>
<polygon fill="#7b8894" stroke="#7b8894" points="239.27,-658.5 249.27,-655 239.27,-651.5 239.27,-658.5"/>
<text xml:space="preserve" text-anchor="middle" x="173.93" y="-759.15" font-family="Sans-Serif" font-size="13.00" fill="#2d3436">HTTPS</text>
</g>
<!-- 498586bc2c0a4e37a6793a3df9c85747 -->
<g id="node10" class="node">
<title>498586bc2c0a4e37a6793a3df9c85747</title>
<image xlink:href="/Users/enriqueramirez/Documents/08-Dev/fo-orchestrator-v2/.venv/lib/python3.14/site-packages/resources/aws/network/endpoint.png" width="100.8px" height="100.8px" preserveAspectRatio="xMinYMin meet" x="250.775" y="-885.4"/>
<text xml:space="preserve" text-anchor="middle" x="301.18" y="-767.75" font-family="Sans-Serif" font-size="13.00" fill="#2d3436">logs</text>
</g>
<!-- f9a8d34c778d40abb55ee56912c4962c&#45;&gt;498586bc2c0a4e37a6793a3df9c85747 -->
<g id="edge7" class="edge">
<title>f9a8d34c778d40abb55ee56912c4962c&#45;&gt;498586bc2c0a4e37a6793a3df9c85747</title>
<path fill="none" stroke="#7b8894" d="M91.1,-1292.4C91.1,-1141.13 91.1,-835 91.1,-835 91.1,-835 239.34,-835 239.34,-835"/>
<polygon fill="#7b8894" stroke="#7b8894" points="239.34,-838.5 249.34,-835 239.34,-831.5 239.34,-838.5"/>
<text xml:space="preserve" text-anchor="middle" x="173.93" y="-924.15" font-family="Sans-Serif" font-size="13.00" fill="#2d3436">HTTPS</text>
</g>
<!-- 5f07feedc4c44e77b7a45d0e825bea67 -->
<g id="node11" class="node">
<title>5f07feedc4c44e77b7a45d0e825bea67</title>
<image xlink:href="/Users/enriqueramirez/Documents/08-Dev/fo-orchestrator-v2/.venv/lib/python3.14/site-packages/resources/aws/network/endpoint.png" width="100.8px" height="100.8px" preserveAspectRatio="xMinYMin meet" x="250.775" y="-1065.4"/>
<text xml:space="preserve" text-anchor="middle" x="301.18" y="-947.75" font-family="Sans-Serif" font-size="13.00" fill="#2d3436">rds</text>
</g>
<!-- f9a8d34c778d40abb55ee56912c4962c&#45;&gt;5f07feedc4c44e77b7a45d0e825bea67 -->
<g id="edge8" class="edge">
<title>f9a8d34c778d40abb55ee56912c4962c&#45;&gt;5f07feedc4c44e77b7a45d0e825bea67</title>
<path fill="none" stroke="#7b8894" d="M108.1,-1292.41C108.1,-1186.12 108.1,-1015 108.1,-1015 108.1,-1015 239.44,-1015 239.44,-1015"/>
<polygon fill="#7b8894" stroke="#7b8894" points="239.44,-1018.5 249.44,-1015 239.44,-1011.5 239.44,-1018.5"/>
<text xml:space="preserve" text-anchor="middle" x="173.93" y="-1075.15" font-family="Sans-Serif" font-size="13.00" fill="#2d3436">HTTPS</text>
</g>
<!-- 6d386b08276141869c878ab278dde7e0 -->
<g id="node12" class="node">
<title>6d386b08276141869c878ab278dde7e0</title>
<image xlink:href="/Users/enriqueramirez/Documents/08-Dev/fo-orchestrator-v2/.venv/lib/python3.14/site-packages/resources/aws/network/endpoint.png" width="100.8px" height="100.8px" preserveAspectRatio="xMinYMin meet" x="250.775" y="-1245.4"/>
<text xml:space="preserve" text-anchor="middle" x="301.18" y="-1127.75" font-family="Sans-Serif" font-size="13.00" fill="#2d3436">states</text>
</g>
<!-- f9a8d34c778d40abb55ee56912c4962c&#45;&gt;6d386b08276141869c878ab278dde7e0 -->
<g id="edge9" class="edge">
<title>f9a8d34c778d40abb55ee56912c4962c&#45;&gt;6d386b08276141869c878ab278dde7e0</title>
<path fill="none" stroke="#7b8894" d="M124.71,-1299.4C191.5,-1299.4 301.1,-1299.4 301.1,-1299.4 301.1,-1299.4 301.1,-1274.69 301.1,-1274.69"/>
<polygon fill="#7b8894" stroke="#7b8894" points="304.6,-1274.69 301.1,-1264.69 297.6,-1274.69 304.6,-1274.69"/>
<text xml:space="preserve" text-anchor="middle" x="173.93" y="-1255.15" font-family="Sans-Serif" font-size="13.00" fill="#2d3436">HTTPS</text>
</g>
<!-- a4bac3d2af0e4728866a0c6bdbde4fdf -->
<g id="node13" class="node">
<title>a4bac3d2af0e4728866a0c6bdbde4fdf</title>
<image xlink:href="/Users/enriqueramirez/Documents/08-Dev/fo-orchestrator-v2/.venv/lib/python3.14/site-packages/resources/aws/network/endpoint.png" width="100.8px" height="100.8px" preserveAspectRatio="xMinYMin meet" x="250.775" y="-1425.4"/>
<text xml:space="preserve" text-anchor="middle" x="301.18" y="-1307.75" font-family="Sans-Serif" font-size="13.00" fill="#2d3436">synthetics</text>
</g>
<!-- f9a8d34c778d40abb55ee56912c4962c&#45;&gt;a4bac3d2af0e4728866a0c6bdbde4fdf -->
<g id="edge10" class="edge">
<title>f9a8d34c778d40abb55ee56912c4962c&#45;&gt;a4bac3d2af0e4728866a0c6bdbde4fdf</title>
<path fill="none" stroke="#7b8894" d="M124.73,-1375C124.73,-1375 239.47,-1375 239.47,-1375"/>
<polygon fill="#7b8894" stroke="#7b8894" points="239.47,-1378.5 249.47,-1375 239.47,-1371.5 239.47,-1378.5"/>
<text xml:space="preserve" text-anchor="middle" x="173.93" y="-1376.15" font-family="Sans-Serif" font-size="13.00" fill="#2d3436">HTTPS</text>
</g>
<!-- 8a9f6299a4d247bebc2895339ed0e7d5 -->
<g id="node14" class="node">
<title>8a9f6299a4d247bebc2895339ed0e7d5</title>
<image xlink:href="/Users/enriqueramirez/Documents/08-Dev/fo-orchestrator-v2/.venv/lib/python3.14/site-packages/resources/aws/network/endpoint.png" width="100.8px" height="100.8px" preserveAspectRatio="xMinYMin meet" x="250.775" y="-1605.4"/>
<text xml:space="preserve" text-anchor="middle" x="301.18" y="-1487.75" font-family="Sans-Serif" font-size="13.00" fill="#2d3436">events</text>
</g>
<!-- f9a8d34c778d40abb55ee56912c4962c&#45;&gt;8a9f6299a4d247bebc2895339ed0e7d5 -->
<g id="edge11" class="edge">
<title>f9a8d34c778d40abb55ee56912c4962c&#45;&gt;8a9f6299a4d247bebc2895339ed0e7d5</title>
<path fill="none" stroke="#7b8894" d="M124.71,-1450.6C191.5,-1450.6 301.1,-1450.6 301.1,-1450.6 301.1,-1450.6 301.1,-1475.31 301.1,-1475.31"/>
<polygon fill="#7b8894" stroke="#7b8894" points="297.6,-1475.31 301.1,-1485.31 304.6,-1475.31 297.6,-1475.31"/>
<text xml:space="preserve" text-anchor="middle" x="173.93" y="-1497.15" font-family="Sans-Serif" font-size="13.00" fill="#2d3436">HTTPS</text>
</g>
<!-- 166477c19edc4b3097f06b70f42d9b0f -->
<g id="node15" class="node">
<title>166477c19edc4b3097f06b70f42d9b0f</title>
<image xlink:href="/Users/enriqueramirez/Documents/08-Dev/fo-orchestrator-v2/.venv/lib/python3.14/site-packages/resources/aws/network/endpoint.png" width="100.8px" height="100.8px" preserveAspectRatio="xMinYMin meet" x="250.775" y="-1785.4"/>
<text xml:space="preserve" text-anchor="middle" x="301.18" y="-1667.75" font-family="Sans-Serif" font-size="13.00" fill="#2d3436">lambda</text>
</g>
<!-- f9a8d34c778d40abb55ee56912c4962c&#45;&gt;166477c19edc4b3097f06b70f42d9b0f -->
<g id="edge12" class="edge">
<title>f9a8d34c778d40abb55ee56912c4962c&#45;&gt;166477c19edc4b3097f06b70f42d9b0f</title>
<path fill="none" stroke="#7b8894" d="M108.1,-1457.59C108.1,-1563.88 108.1,-1735 108.1,-1735 108.1,-1735 239.44,-1735 239.44,-1735"/>
<polygon fill="#7b8894" stroke="#7b8894" points="239.44,-1738.5 249.44,-1735 239.44,-1731.5 239.44,-1738.5"/>
<text xml:space="preserve" text-anchor="middle" x="173.93" y="-1647.15" font-family="Sans-Serif" font-size="13.00" fill="#2d3436">HTTPS</text>
</g>
<!-- a7664f7663b7404ca4537ae755713252 -->
<g id="node16" class="node">
<title>a7664f7663b7404ca4537ae755713252</title>
<image xlink:href="/Users/enriqueramirez/Documents/08-Dev/fo-orchestrator-v2/.venv/lib/python3.14/site-packages/resources/aws/network/endpoint.png" width="100.8px" height="100.8px" preserveAspectRatio="xMinYMin meet" x="250.775" y="-1965.4"/>
<text xml:space="preserve" text-anchor="middle" x="301.18" y="-1847.75" font-family="Sans-Serif" font-size="13.00" fill="#2d3436">sts</text>
</g>
<!-- f9a8d34c778d40abb55ee56912c4962c&#45;&gt;a7664f7663b7404ca4537ae755713252 -->
<g id="edge13" class="edge">
<title>f9a8d34c778d40abb55ee56912c4962c&#45;&gt;a7664f7663b7404ca4537ae755713252</title>
<path fill="none" stroke="#7b8894" d="M91.1,-1457.6C91.1,-1608.87 91.1,-1915 91.1,-1915 91.1,-1915 239.34,-1915 239.34,-1915"/>
<polygon fill="#7b8894" stroke="#7b8894" points="239.34,-1918.5 249.34,-1915 239.34,-1911.5 239.34,-1918.5"/>
<text xml:space="preserve" text-anchor="middle" x="173.93" y="-1812.15" font-family="Sans-Serif" font-size="13.00" fill="#2d3436">HTTPS</text>
</g>
<!-- ff8e88a79bdf45a586516287cd032701 -->
<g id="node17" class="node">
<title>ff8e88a79bdf45a586516287cd032701</title>
<image xlink:href="/Users/enriqueramirez/Documents/08-Dev/fo-orchestrator-v2/.venv/lib/python3.14/site-packages/resources/aws/network/endpoint.png" width="100.8px" height="100.8px" preserveAspectRatio="xMinYMin meet" x="250.775" y="-2145.4"/>
<text xml:space="preserve" text-anchor="middle" x="301.18" y="-2027.75" font-family="Sans-Serif" font-size="13.00" fill="#2d3436">secretsmanager</text>
</g>
<!-- f9a8d34c778d40abb55ee56912c4962c&#45;&gt;ff8e88a79bdf45a586516287cd032701 -->
<g id="edge14" class="edge">
<title>f9a8d34c778d40abb55ee56912c4962c&#45;&gt;ff8e88a79bdf45a586516287cd032701</title>
<path fill="none" stroke="#7b8894" d="M74.1,-1457.59C74.1,-1646.71 74.1,-2095 74.1,-2095 74.1,-2095 239.27,-2095 239.27,-2095"/>
<polygon fill="#7b8894" stroke="#7b8894" points="239.27,-2098.5 249.27,-2095 239.27,-2091.5 239.27,-2098.5"/>
<text xml:space="preserve" text-anchor="middle" x="173.93" y="-1985.15" font-family="Sans-Serif" font-size="13.00" fill="#2d3436">HTTPS</text>
</g>
<!-- c72d828b7fb84e4889accf51ccef48fa -->
<g id="node18" class="node">
<title>c72d828b7fb84e4889accf51ccef48fa</title>
<image xlink:href="/Users/enriqueramirez/Documents/08-Dev/fo-orchestrator-v2/.venv/lib/python3.14/site-packages/resources/aws/network/endpoint.png" width="100.8px" height="100.8px" preserveAspectRatio="xMinYMin meet" x="250.775" y="-2339.4"/>
<text xml:space="preserve" text-anchor="middle" x="301.18" y="-2220.85" font-family="Sans-Serif" font-size="13.00" fill="#2d3436">health</text>
<text xml:space="preserve" text-anchor="middle" x="301.18" y="-2207.35" font-family="Sans-Serif" font-size="13.00" fill="#2d3436">(AZ&#45;restricted)</text>
</g>
<!-- f9a8d34c778d40abb55ee56912c4962c&#45;&gt;c72d828b7fb84e4889accf51ccef48fa -->
<g id="edge15" class="edge">
<title>f9a8d34c778d40abb55ee56912c4962c&#45;&gt;c72d828b7fb84e4889accf51ccef48fa</title>
<path fill="none" stroke="#7b8894" d="M57.1,-1457.72C57.1,-1682.71 57.1,-2289 57.1,-2289 57.1,-2289 239.38,-2289 239.38,-2289"/>
<polygon fill="#7b8894" stroke="#7b8894" points="239.38,-2292.5 249.38,-2289 239.38,-2285.5 239.38,-2292.5"/>
<text xml:space="preserve" text-anchor="middle" x="173.93" y="-2168.15" font-family="Sans-Serif" font-size="13.00" fill="#2d3436">HTTPS</text>
</g>
<!-- d9c1a18784614c0fb16456fca4d8f4e6 -->
<g id="node19" class="node">
<title>d9c1a18784614c0fb16456fca4d8f4e6</title>
<image xlink:href="/Users/enriqueramirez/Documents/08-Dev/fo-orchestrator-v2/.venv/lib/python3.14/site-packages/resources/aws/network/endpoint.png" width="100.8px" height="100.8px" preserveAspectRatio="xMinYMin meet" x="250.775" y="-2535.4"/>
<text xml:space="preserve" text-anchor="middle" x="301.18" y="-2417.75" font-family="Sans-Serif" font-size="13.00" fill="#2d3436">s3</text>
</g>
<!-- f9a8d34c778d40abb55ee56912c4962c&#45;&gt;d9c1a18784614c0fb16456fca4d8f4e6 -->
<g id="edge16" class="edge">
<title>f9a8d34c778d40abb55ee56912c4962c&#45;&gt;d9c1a18784614c0fb16456fca4d8f4e6</title>
<path fill="none" stroke="#7b8894" d="M41.1,-1457.52C41.1,-1714.77 41.1,-2485 41.1,-2485 41.1,-2485 239.52,-2485 239.52,-2485"/>
<polygon fill="#7b8894" stroke="#7b8894" points="239.52,-2488.5 249.52,-2485 239.52,-2481.5 239.52,-2488.5"/>
</g>
</g>
</svg>
